<?xml version="1.0" encoding="UTF-8"?>
<svg id="Layer_1" xmlns="http://www.w3.org/2000/svg" viewBox="0 0 429.3 216.64">
  <defs>
    <style>
      .cls-1 {
        fill: #7f7e7e;
      }

      .cls-2 {
        fill: #8c5d38;
      }

      .cls-3 {
        fill: #d4a92a;
      }

      .cls-4 {
        fill: #f9f088;
      }

      .cls-5 {
        fill: #cf992b;
      }

      .cls-6 {
        fill: #b38f2f;
      }

      .cls-7 {
        fill: #edd084;
      }

      .cls-8 {
        fill: #474747;
      }

      .cls-9 {
        fill: #0b0b0b;
      }

      .cls-10 {
        fill: #4a4a4a;
      }

      .cls-11 {
        fill: #d8ae28;
      }

      .cls-12 {
        fill: #906d53;
      }

      .cls-13 {
        fill: #9a7a30;
      }

      .cls-14 {
        fill: #af8c2f;
      }

      .cls-15 {
        fill: #6f6f6f;
      }

      .cls-16 {
        fill: #9e7f2e;
      }

      .cls-17 {
        fill: #aa8a30;
      }

      .cls-18 {
        fill: #cbab2e;
      }

      .cls-19 {
        fill: #ac8a2f;
      }

      .cls-20 {
        fill: #e3a84c;
      }

      .cls-21 {
        fill: #575757;
      }

      .cls-22 {
        fill: #f0bd1c;
      }

      .cls-23 {
        fill: #fde96b;
      }

      .cls-24 {
        fill: #fccf2c;
      }

      .cls-25 {
        fill: #d39e2a;
      }

      .cls-26 {
        fill: #f7c416;
      }

      .cls-27 {
        fill: #e3b724;
      }

      .cls-28 {
        fill: #414141;
      }

      .cls-29 {
        fill: #f9df6e;
      }

      .cls-30 {
        fill: #fee47e;
      }

      .cls-31 {
        fill: #fff;
      }

      .cls-32 {
        fill: #fcd311;
      }

      .cls-33 {
        fill: #515151;
      }

      .cls-34 {
        fill: #ffda45;
      }

      .cls-35 {
        fill: #3d3d3d;
      }

      .cls-36 {
        fill: #ffcd0a;
      }

      .cls-37 {
        fill: #fbe956;
      }

      .cls-38 {
        fill: #d6a837;
      }

      .cls-39 {
        fill: #ffdc53;
      }

      .cls-40 {
        fill: #a07c36;
      }

      .cls-41 {
        fill: #b38d3c;
      }

      .cls-42 {
        fill: #aa8330;
      }

      .cls-43 {
        fill: #858484;
      }

      .cls-44 {
        fill: #fee67e;
      }

      .cls-45 {
        fill: #ffdb79;
      }

      .cls-46 {
        fill: #fee301;
      }

      .cls-47 {
        fill: #cc9e35;
      }

      .cls-48 {
        fill: #b49a31;
      }

      .cls-49 {
        fill: #e9b428;
      }

      .cls-50 {
        fill: #d6aa2a;
      }

      .cls-51 {
        fill: #fddc02;
      }

      .cls-52 {
        fill: #90732d;
      }

      .cls-53 {
        fill: #fede4d;
      }

      .cls-54 {
        fill: #222;
      }

      .cls-55 {
        fill: #b69130;
      }

      .cls-56 {
        fill: #a5852f;
      }

      .cls-57 {
        fill: #f9f399;
      }

      .cls-58 {
        fill: #fee68c;
      }

      .cls-59 {
        fill: #4d4d4d;
      }

      .cls-60 {
        fill: #daad28;
      }

      .cls-61 {
        fill: #ffd847;
      }

      .cls-62 {
        fill: #e6c146;
      }

      .cls-63 {
        fill: #face1e;
      }

      .cls-64 {
        fill: #494949;
      }

      .cls-65 {
        fill: #b8922e;
      }

      .cls-66 {
        fill: #fee185;
      }

      .cls-67 {
        fill: #d4a137;
      }

      .cls-68 {
        fill: #fbf395;
      }

      .cls-69 {
        fill: #d6aa29;
      }

      .cls-70 {
        fill: #f3d54e;
      }

      .cls-71 {
        fill: #fcd323;
      }

      .cls-72 {
        fill: #c9bb37;
      }

      .cls-73 {
        fill: #5e5e5d;
      }

      .cls-74 {
        fill: #fdcf25;
      }

      .cls-75 {
        fill: #d8ac28;
      }

      .cls-76 {
        fill: #f7c315;
      }

      .cls-77 {
        fill: #e4b629;
      }

      .cls-78 {
        fill: #dfb63c;
      }

      .cls-79 {
        fill: #fecd13;
      }

      .cls-80 {
        fill: #ffd94d;
      }

      .cls-81 {
        fill: #d6cc68;
      }

      .cls-82 {
        fill: #efb625;
      }

      .cls-83 {
        fill: #c19c2f;
      }

      .cls-84 {
        fill: #f3c218;
      }

      .cls-85 {
        fill: #b08830;
      }

      .cls-86 {
        fill: #383838;
      }

      .cls-87 {
        fill: #feea70;
      }

      .cls-88 {
        fill: #ffd94f;
      }

      .cls-89 {
        fill: #959595;
      }

      .cls-90 {
        fill: #f2d85f;
      }

      .cls-91 {
        fill: #fbe72f;
      }

      .cls-92 {
        fill: #dba049;
      }

      .cls-93 {
        fill: #fcd757;
      }

      .cls-94 {
        fill: #444343;
      }

      .cls-95 {
        fill: #cccbcb;
      }

      .cls-96 {
        fill: #3a3a3a;
      }

      .cls-97 {
        fill: #e4c622;
      }

      .cls-98 {
        fill: #ffda56;
      }

      .cls-99 {
        fill: #d99429;
      }

      .cls-100 {
        fill: #fcec65;
      }

      .cls-101 {
        fill: #dcae2f;
      }

      .cls-102 {
        fill: #ddaf26;
      }

      .cls-103 {
        fill: #d0c27a;
      }

      .cls-104 {
        fill: #ede9bc;
      }

      .cls-105 {
        fill: #ffdd5a;
      }

      .cls-106 {
        fill: #fee049;
      }

      .cls-107 {
        fill: #94772d;
      }

      .cls-108 {
        fill: #fbc918;
      }

      .cls-109 {
        fill: #ae8d30;
      }

      .cls-110 {
        fill: #fee176;
      }

      .cls-111 {
        fill: #977d2f;
      }

      .cls-112 {
        fill: #b5902f;
      }

      .cls-113 {
        fill: #fbee70;
      }

      .cls-114 {
        fill: #b8aa34;
      }

      .cls-115 {
        fill: #fdea63;
      }

      .cls-116 {
        fill: #ffd14c;
      }

      .cls-117 {
        fill: #2a2a2a;
      }

      .cls-118 {
        fill: #fed305;
      }

      .cls-119 {
        fill: #b08d2f;
      }

      .cls-120 {
        fill: #828181;
      }

      .cls-121 {
        fill: #f8bf2f;
      }

      .cls-122 {
        fill: #8c702c;
      }

      .cls-123 {
        fill: #fee272;
      }

      .cls-124 {
        fill: #fed756;
      }

      .cls-125 {
        fill: #ffd94e;
      }

      .cls-126 {
        fill: #c69631;
      }

      .cls-127 {
        fill: #daae29;
      }

      .cls-128 {
        fill: #ffe297;
      }

      .cls-129 {
        fill: #c19431;
      }

      .cls-130 {
        fill: #fecb2f;
      }

      .cls-131 {
        fill: #d6b029;
      }

      .cls-132 {
        fill: #daa82b;
      }

      .cls-133 {
        fill: #ffda58;
      }

      .cls-134 {
        fill: #f9c715;
      }

      .cls-135 {
        fill: #a08933;
      }

      .cls-136 {
        fill: #825c41;
      }

      .cls-137 {
        fill: #fee57e;
      }

      .cls-138 {
        fill: #d0a030;
      }

      .cls-139 {
        fill: #ffd657;
      }
    </style>
  </defs>
  <path class="cls-31" d="M214.65,216.61c-71,0-141.99,0-212.99.03-1.35,0-1.66-.3-1.66-1.66C.04,143.88.04,72.77,0,1.66,0,.3.3,0,1.66,0c141.99.04,283.99.04,425.98,0,1.35,0,1.66.3,1.66,1.66-.04,71.11-.04,142.22,0,213.33,0,1.35-.3,1.66-1.66,1.66-71-.04-141.99-.03-212.99-.03Z"/>
  <path class="cls-78" d="M30.28,184.87c.31-.52.47-1.17,1.13-1.41,1.12-.44,2.14.19,3.09.48,2.15.66,3.91,0,5.57-1.16,1.32-.93,2.58-1.96,3.73-3.11.74-.51,1.53-.94,2.43-1.11,2.05-.06,3.47-1.39,4.76-2.66,2.88-2.84,6.22-5.1,9.35-7.61,1.42-1.15,2.61-2.48,3.74-3.88,4.75-5.89,9.42-11.82,12.97-18.57,1.42-2.69,2.94-5.36,4.62-7.93,2.29-3.5,3.03-7.51,2.52-11.56-.85-6.72-1.81-13.44-3.81-19.95-.52-1.7-.46-3.44-.18-5.18.41-2.48-.3-4.6-2.02-6.43-2.34-2.5-4.5-5.15-7.21-7.29-1.22-.97-1.15-2.25-.68-3.61.73-2.13.31-3.28-1.45-4.2-2.04-1.07-3.88-.78-5.16.82-.37.47-.66,1.01-1.12,1.4-.66.55-1.35.83-2.04.03-.06-2.85,1.75-4.82,3.3-6.88.55-.73,1.31-1.39,2.24-1.72.18-.02.36,0,.54,0,3.37-.22,5.61.87,6.67,4.48.59,2,1.79,3.88,2.3,5.99.33,1.35.88,2.62,1.94,3.59,3.81,3.5,6.92,7.63,10.3,11.52.89,1.03,1.98,1.73,3.14,2.35.93.5,1.55.42,1.73-.84.29-1.97.49-3.93.14-5.9-.19-1.07-.13-2.15-.18-3.23-.09-2.23,1.42-3.33,3.07-4.25.87-.49,1.74-.08,2.53.42,1.1.69,1.99,1.69,3.21,2.22,3.27,5.26,4.98,11.11,6.34,17.06,1.05,4.6,1.95,9.24,1.82,14.01-.95,5.98-1.7,11.99-3.7,17.76-1.46,4.19-2.49,8.53-4.31,12.6-1.15,2.58-2.53,5.04-3.8,7.55-.33.64-.73,1.25-.81,1.98-.7,1.98-2.17,3.49-3.21,5.27-1.34,1.88-2.56,3.85-4.22,5.48-.38.28-.64.67-.94,1.02-.27.29-.56.55-.96.63-.25.15-.56.25-.73.46-4.73,5.85-11.09,9.67-17.23,13.76-1.13.75-2.43,1.23-3.65,1.84-.44-.8.19-1.26.63-1.68,2.73-2.63,4.75-5.87,7.36-8.62,1.63-1.72,1.65-4.26,1.52-6.5-.16-2.72.24-5.37.33-8.05.02-.53.15-1.07.15-1.61,0-1.1-.56-1.57-1.61-1.32-1.4.33-2.69.78-3.78,1.91-3.73,3.9-7.55,7.73-12.23,10.52-2.04,1.22-3.8,2.72-5.42,4.42-.79.83-1.59,1.69-2.7,2.05-4.03,1.3-7.69,3.33-11.31,5.46-1.25.73-2.82.63-4.02,1.52-.51.35-1.01.69-1.64.76-1.06-.08-1.28-1.18-2.03-1.64-.3-.25-.54-.55-.76-.87-.13-.19-.22-.4-.26-.62Z"/>
  <path class="cls-36" d="M338.71,121.08c.89-2.18.17-4.41.21-6.61.01-.76-.04-1.53-.07-2.3.85.14.44.94.73,1.37.06-.19.22-.28.38-.35,3.3-1.5,3.9-4.53,1.27-7.09-1.84-1.79-3.98-3.23-6.28-4.41-.51-.26-1.38-.25-1.28-1.2.83-.54,1.64-.19,2.4.14,3.59,1.54,6.95,3.52,10.18,5.69.6.4,1.12.9,1.39,1.61.23,1.24-.57,2.01-1.28,2.82-2.15,2.43-2.32,4.34-.45,6.95,1.39,1.94,2.06,4.03,1.96,6.41-.18,4.52.33,8.97,1.19,13.41.64,3.37.26,6.83.18,10.24-.03,1.37.2,2.59.76,3.83,1.79,3.93,3.96,7.55,7.8,9.85.25.15.44.41.61.65,2.07,4.13,6.11,5.79,9.81,7.9.55.32,1.7.13,1.43,1.35-1.54.54-2.81-.31-4.09-.88-7.27-3.21-12.03-9-15.87-15.66-2.65-4.59-2.93-4.75-7.94-3.02-2.23.77-4.23,2.01-6.33,3.05-4.21,2.08-8.62,2.92-13.28,2.19-1.04-.16-2.03.14-3.04.19-3.56.2-7.07-.05-10.54-.97-1.72-.45-3.03-1.55-4.16-2.74-1.86-1.94-3.98-3.25-6.6-3.78-.36-.07-.68-.24-.93-.52.02-2.64.39-5.17,2.15-7.3,3.33.22,6.04-.89,8.7-3.02,3.25-2.61,7.09-4.43,10.56-6.81,3.06-2.09,6.14-4.17,9.28-6.15,3.79-1.46,7.88-2.24,11.16-4.87Z"/>
  <path class="cls-29" d="M43.59,170.09c2.08-2.66,4.87-4.55,7.25-6.91,6.22-6.17,12.15-12.55,15.66-20.74.67-1.56,1.72-2.96,2.07-4.66.18-1.84.83-3.57,1.31-5.34,1.07-3.98,1.27-8.09,1.95-12.13.6-2.04-.04-4.02-.4-5.98-.62-3.4-1.25-6.86-2.84-9.94-2.08-4.02-4.51-7.85-6.76-11.77-.59-1.03-1.11-2.11-1.66-3.17,1.14-2.16,2.33-2.46,4.04-.83,1.89,1.8,3.4,3.82,1.98,6.66-.36.72-.11,1.4.33,2.03.86,1.23,1.67,2.5,2.49,3.75,1.7,2.59,2.81,5.43,3.23,8.52.14,1.01.29,2.01.73,3.04.35-.88.09-1.74.24-2.55.23-1.28.81-1.6,2.03-1.21,2.66.84,4.25,2.51,5.07,5.28,1.31,4.46,1.36,8.94.48,13.36-1.98,9.89-5.35,19.29-10.94,27.79-1.03,1.57-2.46,2.78-3.82,4.06-.34.32-.8.7-1.28.34-.49-.37-.15-.89.03-1.31.43-1,1.14-1.83,1.74-2.73.6-.89,1.37-1.65,1.9-2.61-4.38,7.37-11.37,12.17-17.53,17.79-1.62,1.48-2.96,3.14-4.01,5.05-.96,1.76-2.51,2.55-4.44,2.59-1.8.04-2.41-1.05-1.46-2.57.76-1.22,1.76-2.28,2.54-3.49.51-.8.65-1.52.05-2.31Z"/>
  <path class="cls-38" d="M34.66,187.05c.15-.18.28-.48.46-.53,5.25-1.2,9.25-5.2,14.49-6.44.73-.17,1.49-.53,2.01-1.15,3.01-3.59,7.13-5.76,10.82-8.5,1.65-1.23,3.04-2.84,4.59-4.2,2.18-1.92,3.7-4.72,6.95-5.33,2.01-.37,2.75-.07,2.47,1.91-.33,2.37-.38,4.76-.52,7.11-.14,2.29.1,4.57-.42,6.87-.27,1.19-.74,2.08-1.56,2.92-2.87,2.94-5.27,6.28-7.91,9.42-2.52,1.39-5.07,2.68-7.9,3.31-.35-2.82-1.08-3.43-4.05-3.47-1.34-.02-2.61.2-3.85.73-1.38.6-2.82.99-4.3,1.25-2.75.48-4.38-.16-5.74-2.55-.62-1.09-1.26-1.42-2.45-1.11-1.02.26-2.11.55-3.08-.24Z"/>
  <path class="cls-47" d="M101.44,89.69c-.25.39-.53.41-.89.12-.56-.45-1.12-.9-1.7-1.31-.95-.67-1.9-1.88-3.15-1.01-1.31.92-2.9,1.77-2.63,3.91.25,2.01.34,4.05.36,6.07.01,1.3-.21,2.61-.36,3.91-.11.95-.66.91-1.43.69-2.63-.78-4.28-2.79-5.89-4.77-2.53-3.12-5-6.28-8-8.95-1.72-1.54-2.61-3.48-2.98-5.6-.5-2.84-2.51-4.98-3.25-7.71-.27-.99-1.64-1.05-2.67-1.12-.95-.06-1.93.18-2.82-.36-.43-.43-.44-.95-.35-1.5.23-.89.78-1.23,1.71-1.22.88,0,1.79.23,2.64-.17,6.28-.58,12.05.83,17.5,4.07,4.81,2.86,8.37,6.85,11.5,11.36.82,1.19,1.69,2.34,2.4,3.6Z"/>
  <path class="cls-118" d="M358.21,162.55c-1.62-1.57-3.63-2.71-5.04-4.5-2.05-2.6-3.54-5.54-4.38-8.7-.37-1.37-.06-2.95.06-4.42.39-4.52-.51-8.92-1.2-13.33-.42-2.7-.19-5.37-.24-8.05-.04-2.13-.66-3.97-1.96-5.63-1.95-2.49-1.79-5.12.46-7.39.77-.78,1.54-1.53,1.48-2.75,1.82.22,3.45,1.12,4.9,2.05,2.08,1.32,4.12,2.57,6.58,3,.1.37.21.73.31,1.1-1.5,4.12-1.65,8.39-1.57,12.72.12,5.92-.33,11.84-.34,17.76,0,2.5.81,4.83,1.37,7.21.21.91.96,1.5,1.65,2.08.35.52.05.95-.31,1.22-2.1,1.53-1.86,3.49-1.08,5.56.25.67.59,1.33.08,2.01-.2.27-.5.26-.78.05Z"/>
  <path class="cls-79" d="M261.52,168.65c.35-2.06.7-4.12,1.06-6.18,1.16.4,1.95-.17,2.66-.99,1.54-1.77,2.08-3.91,2.21-6.16.11-1.98.23-3.95.39-5.92.15-1.91.12-3.84-.46-5.71-.77-2.46-.69-4.99-.49-7.5.4-5.15.46-10.3-.03-15.45-.25-2.71.46-5.37.35-8.08-.04-1.02-.03-2.03-.36-3.01,1-1.91,2.69-3.1,4.48-4.16,1.08-.64,2.24-1.13,3.35-1.73,1.79-.8,3.72-.89,5.62-1.11,1.11-.13,2.14.2,2.87,1.16v8.84c1.6-.35,1.54-2.12,2.67-2.69,1.46-.82,2.86-1.74,4.22-2.73,3.44-2.52,7.58-2.87,11.61-3.49.99-.15,2.02-.32,3.04-.26,2,.34,4.05.08,6.06.47,1.5.29,2.74.9,3.58,2.15.73,1.1,1.95,1.77,2.52,2.99-.38,1.05-.97,1.91-2.08,2.3-2.81.45-5.24-.22-7.13-2.46-1.61-1.91-3.8-2.53-6.15-2.43-3.87.16-7.57.81-10.75,3.44-2.25,1.86-4.73,3.51-7.42,4.74-3.73,1.7-4.89,4.89-5.03,8.66-.15,3.9.04,7.8.04,11.69,0,3.86-.65,7.65-.88,11.48-.22,3.65-.42,7.3-.64,10.95-.38,6.15-2.32,11.77-6.54,16.38-.91,1-1.87,2.53-3.73,1.63,0-.41.26-.66.54-.89,4.62-3.73,6.18-8.89,6.55-14.48.63-9.63.98-19.27,2.35-28.84.33-2.33.3-4.66,0-7-.33-2.57-.11-5.16-.15-7.73-.02-1.28-.21-2.5-.79-3.66-.58-1.15-1.49-1.86-2.71-2.19-2.16-.6-3.25.15-3.37,2.37-.06,1.14-.01,2.28.11,3.41.82,7.34,1.38,14.69.63,22.08-.17,1.68-.06,3.35.54,4.97.69,1.85.56,3.78.38,5.7-.25,2.69-.6,5.36-.63,8.07-.02,2.13-.77,4.11-1.36,6.13-.81,2.78-1.57,5.55-3.72,7.68-.42.42-.75.94-1.31,1.22-1.69-.43-2.34-1.57-2.08-3.67Z"/>
  <path class="cls-49" d="M133.17,139.66c-3.87,2.94-7.94,5.55-12.48,7.31-2.73,1.06-5.34,2.42-8.2,3.15-2.21.57-4.43,1.03-6.73.99-1,.02-2.03.41-2.96-.26-.38-.59-.14-1.15.1-1.7,2.36-5.37,4.47-10.82,5.37-16.66.04-.24.19-.43.38-.59,2.42-.1,4.68-.65,6.75-2.03,2.38-1.6,5.06-2.69,7.47-4.26,7.18-4.69,13.18-10.45,17.39-18.02,1.09-1.95,2.65-3.67,3.94-5.54,1.47-2.13,1.7-4.54,1.83-7,.22-.53.63-.57,1.11-.42.32.16.7.23.93.54.42,2.55-.87,4.64-1.88,6.78-.86,1.83-2.19,3.43-2.32,5.58-.05.77-.6,1.49-1.22,1.95-2.63,1.93-4.07,4.86-6.22,7.18-1.95,2.11-3.79,4.32-5.59,6.55-.79.69-1.25,1.6-1.7,2.51-.97,1.97-.21,3.59,1.94,4.05,1.57.34,3.13.46,4.39,1.74,1.58,1.6,1.83,3.04.48,4.89-.85,1.16-1.89,2.15-2.76,3.28Z"/>
  <path class="cls-93" d="M102.85,150.66c.89.65,1.95.19,2.91.44-.58.43-1.3.06-2.05.41,2.6,3,5.74,5.21,8.98,7.34,5.82,3.81,12.22,6.01,19.03,7.05,7.52,1.15,14.86,3.08,22.17,5.12.82.23,2.05-.18,2.27,1.21-.05.76-.59,1.09-1.17,1.44-2.58,1.55-5.43,1.95-8.32,1.59-4.98-.63-10.03-.54-14.97-1.49-4.84-.69-9.42-2.31-13.98-3.96-2.6-.94-4.89-2.52-7.31-3.81-4.19-2.22-7.99-5.03-11.45-8.28-.13-.12-.21-.29-.27-.46.86-2.32,2.42-4.26,3.55-6.44.11-.22.36-.27.61-.17Z"/>
  <path class="cls-117" d="M297.56,48.7c2.52,1.18,4.17,3.36,5.98,5.31,4.41,4.74,10.14,7.22,15.87,9.82,6.4,2.91,13.2,4.79,19.48,7.99,1.76.9,3.74,1.38,5.62,2.05.42.55.14,1.01-.2,1.46-1.84.62-2.92-1.11-4.45-1.45-.17-.04-.31-.18-.46-.28-.07.18.16.23.16.39-.33.83-.95.52-1.51.38-2.9-.74-3.3-.45-3.64,2.62-.03.28-.29.35-.52.42-2.7-.65-5.11-2.01-7.6-3.14-5.58-2.52-11.48-4.15-17.15-6.39-3.33-1.31-6.78-2.34-9.86-4.23-.46-.69-.35-1.08.55-1.17,2.04-.2,2.75-1.72,1.8-3.55-.52-1-.48-2.15-1.61-3-.9-.67-1.79-1.25-2.76-1.81-2.1-1.22-4.19-2.57-5.31-4.88-.92-1.91-2.78-2.35-4.52-2.93-1.19-.4-2.43-.66-3.62-1.07-2.72-.92-3.74-.23-3.81,2.61-.02.28-.08.54-.18.8-.23.4-.41.89-1.03.77-.13-.13-.23-.29-.29-.47-.1-.35-.1-.71-.12-1.07-.08-2.35-.4-2.78-2.63-2.21-5.58,1.41-11.26,2.6-16.01,6.17-.41.31-.9.91-1.4.42-.59-.57.03-1.07.41-1.52,1.12-1.34,2.85-1.98,3.88-3.42.7-.39,1.41-.79,2.11-1.18,2.53-.65,4.89-1.84,7.45-2.45,7.47-1.76,14.55-.67,21.39,2.63,1.4.68,2.43,1.96,3.98,2.38Z"/>
  <path class="cls-132" d="M131.34,173.36c4.8.46,9.6.95,14.4,1.37,3.73.32,7.37.11,10.42-2.49.06.38.53.62.36,1.08.11.38.39.74.15,1.17-.3.51-.8.67-1.33.79-1.49.43-2.88,1.17-4.49,1.23-.94.04-1.33.49-1.04,1.57.45,1.65.09,2.09-1.52,2.62-2.55.83-4.82-.03-6.82-1.39-2.89-1.98-6.02-2.76-9.45-3.02-2.91-.23-5.75-1.12-8.74-1.04-1.54.05-2.77.66-4.03,1.35-.31.17-.68.39-.48.82.13.29.48.32.79.31.49-.01.93-.23,1.4-.32,1.61-.29,2.43.37,2,1.95-.43,1.58.35,2.24,1.52,2.47,2.92.58,5.61,2.02,8.74,1.92,3.43-.11,6.6,1.11,9.57,2.78.52.29,1.05.61,1.16,1.28-4.99,1.83-10.17,1.98-15.4,1.86-8.39-.2-16.05-3.07-23.56-6.44-2.29-1.03-4.56-2.08-6.84-3.13.68-1.14,1.57-.52,2.3-.18,2.72,1.27,5.48,2.41,8.49,2.76.18.02.35.08.53.1,1.23.12,2.93.76,3.55-.28.74-1.24.55-3-.16-4.46-.45-.91-1.03-1.75-1.44-2.69-1.05-2.37-.53-3.53,1.87-4.44,1.52-.58,3-.6,4.58-.27,4.48.93,8.91,2.14,13.47,2.71Z"/>
  <path class="cls-76" d="M266.59,175.53c2.98-.55,4.47-2.91,5.77-5.2,2.63-4.63,3.97-9.6,4.05-15.04.08-5.28.49-10.58,1.24-15.84.36-2.51.11-5.11.15-7.66.07-3.82-.38-7.66.33-11.46.56-2.95,2.36-4.93,5-6.14,3.18-1.46,5.9-3.61,8.72-5.61.85-.61,1.69-1.11,2.67-1.4,3.17-.91,6.35-1.63,9.69-.87,1.22.28,2.34.69,3.1,1.65,1.96,2.51,4.49,3.46,7.6,3.06.49,1.04-.4,1.3-.98,1.73-3.18,1.05-6.15.71-8.84-1.36-.67-.51-1.33-1.02-1.96-1.59-2.39-2.19-6.18-2.68-8.96-.92-3.86,2.44-7.49,5.15-10.58,8.6-2.71,3.02-2.92,6.43-2.27,10.11.26,1.47.45,3,1.8,4,.13,10.72.2,21.44-.02,32.16,0,.46.09.97-.25,1.38-.53-.32-.27-1.02-.84-1.59-1.69,2.42-3.87,4.36-5.74,6.57-1.99,2.35-4.25,4.35-7.06,5.7-3.35,1.6-6.83,2.89-10.24,4.34-.8.17-1.58.4-2.41.31-.37-.11-.69-.29-.87-.65.07-.87.74-.99,1.4-1.09,2.76-.39,5.25-1.53,7.75-2.68.56-.27,1.05-.78,1.77-.49Z"/>
  <path class="cls-32" d="M251.35,111.42c.16,1.56,1.68,2.61,1.59,4.27-3.95-.17-7.87.03-10.99-3.4-3.86-4.24-8.48-7.59-14.04-9.41-.69-.22-1.37-.44-2.11-.39-3.69-.72-7.2-.38-10.63,1.31-4.38,2.15-6.18,5.9-6.88,10.41-.11.71.02,1.44.36,2.09.52,1.01,1.1,1.92,2.48,1.19.26-.14.42.11.56.31.45,2.05.25,4.1.15,6.16-.2.97-.91,1.16-1.76,1.17-.81.01-1.52-.31-2.25-.59-2.3-.9-3.4-.56-4.76,1.43-2.88,4.19-2.55,8.14,1,11.84.4.42,11.59,8.34,12.11,8.57.49.22,1.02.37,1.49.64,1.73,1.24,3.33,2.65,5.21,3.69.41.23,1.08.4.73,1.15-1.04.46-1.89-.09-2.69-.58-1.7-1.04-3.49-1.89-5.35-2.57-4.71-1.73-8.78-4.66-12.4-7.91-4.17-3.75-6.59-8.7-5.69-14.67.18-1.2.18-2.4.07-3.59-.16-1.64-.43-3.24-2.17-4.07-.39-.18-.57-.6-.8-.96.5-1.23.61-2.63,1.58-3.66,3-.59,5.6-1.94,7.89-3.97,1-.88,1.73-1.97,2.65-2.91,1.6-1.62,3.29-3.13,5.06-4.55,6.5-3.92,13.18-3.95,19.96-.84,4.42,2.03,8.66,4.36,12.55,7.35,2.02,1.56,4.34,2.8,7.1,2.49Z"/>
  <path class="cls-62" d="M60.64,81.83c1.38.78,1.81-.43,2.35-1.19,1.66-2.31,4.57-2.76,6.8-.98,1.36,1.09,1.96,2.39,1.06,4.07-.88,1.64-.54,2.79,1.03,3.96,2.98,2.24,5.34,5.17,7.67,8.04,1.2,1.48,1.63,3.54,1.1,5.64-.45,1.76-.31,3.59.25,5.31,2.08,6.44,2.92,13.14,3.79,19.8.54,4.1-.38,8.19-2.7,11.83-3.67,5.74-6.51,12-10.59,17.48-2.78,3.73-5.66,7.4-8.67,10.94-2.26,2.65-5.44,4.27-8.04,6.55-1.62,1.42-3.18,2.91-4.88,4.2-1.01.77-2.01,1.94-3.59,1.31.28-1.07,1.33-1.27,2.07-1.8,1.1-.79,2.02-1.81,3.2-2.5,2.69-1.99,5.18-4.2,7.51-6.59,4.53-4.56,8.79-9.35,12.23-14.81,2.21-3.51,3.76-7.35,5.28-11.19.51-1.28.94-2.6,1.55-3.82,1.93-3.84,2.24-8,2.88-12.15.94-6.09-.4-11.83-2.1-17.51-1.31-4.39-3.85-8.22-6.56-11.93-2.88-3.93-6.44-7.27-9.39-11.14-1.11-1.45-1.94-1.42-3.57-.4-.6.38-1.18.88-1.98.53-.43-.28-.77-.63-.95-1.13.67-.76,1.55-1.28,2.17-2.11.51-.7,1.31-.75,2.11-.41Z"/>
  <path class="cls-25" d="M130.6,122.92c3.01-4.21,6.83-7.77,9.77-12.06.29-.42.83-.67,1.24-1.02,1.12-.94,2.05-1.97,2.01-3.6-.04-1.54,1.17-2.58,1.82-3.84,1.18-2.3,2.24-4.6,2.48-7.21.18-.06.44-.07.46.09.32,1.86,1.85,2.51,3.18,3.51,1.76,1.33,2.08,3.6,2.66,5.62.08.27-.03.59.16.85.41,2.43.22,4.83-.37,7.21-.34,1.07-.92,1.95-2.01,2.36-2.1.79-3.42,2.41-4.37,4.31-1.17,2.35-2.87,4.29-4.7,6.08-1.55,1.51-3.8,1.98-5.76,2.82-1.31.56-2.7.97-4.07,1.41-1.1.36-2.18.4-3-.5-.78-.85-.96-1.96-.59-3.03.35-1.01.58-2.07,1.1-3.02Z"/>
  <path class="cls-90" d="M51.61,174.8c-1.68,1.5-3.47,2.84-5.42,3.99-.71.36-1.43.71-2.14,1.07-1.71,1.33-3.45.63-5-.19-1.37-.72-.86-2.16-.69-3.38.3-.63.75-1.13,1.31-1.54,1.1-.29,1.95-.79,1.76-2.14.37-1.14,1.36-1.74,2.16-2.51,1.54.04,1.35.94.8,1.8-.94,1.45-2,2.83-3.01,4.24-.3.43-.78.82-.41,1.43.34.57.92.51,1.45.48,1.69-.1,3.23-.6,4-2.25,1.52-3.26,4.21-5.49,6.85-7.71,5.22-4.41,10.53-8.7,14.24-14.57.39-.61.87-1.13,1.68-1.4-.8,2.8-3.51,4.52-4.21,7.44,1.57-1.29,3.11-2.6,4.33-4.24,2.99-4.04,5.01-8.6,6.74-13.26,1.7-4.58,3.5-9.16,4.24-14.04.77-5.08.88-10.05-.82-15.05-.89-2.6-3.11-2.9-4.96-3.91-.61-.34-.85.45-.87,1.01-.03.9,0,1.8-.02,2.7,0,.43-.09.91-.61.95-.52.04-.42-.48-.49-.8-.36-1.63-.71-3.26-1.04-4.9-.53-2.62-1.64-4.99-3.16-7.18-.85-1.23-1.67-2.48-2.53-3.7-.58-.82-.33-1.53.07-2.34,1.09-2.21-.91-6.22-3.33-6.77-.65-.15-1.23-.06-1.46.66-.15.46-.41.71-.88.76-1.07-1.24-1.43-2.99-2.86-3.97.78-.04,1.3-.61,1.88-1,1.67-1.14,2.48-1.15,3.86.35,1.29,1.41,2.43,2.95,3.7,4.38,2.8,3.18,5.49,6.43,7.89,9.94,2.88,4.22,4.78,8.77,5.83,13.72.63,2.98,1.24,5.98,1.07,9.04-.34,6.14-.84,12.2-3.69,17.9-2.78,5.55-4.64,11.58-8.39,16.63-1.91,2.58-3.82,5.19-6.07,7.51-1.41,1.45-2.8,2.91-4.2,4.37-2.6,2.07-5.39,3.92-7.57,6.49Z"/>
  <path class="cls-124" d="M146.05,95.13c.42.06.58.2.5.71-.41,2.47-.77,4.93-2.31,7.06-2.67,3.71-5.31,7.44-7.86,11.23-2.39,3.54-5.78,6.01-8.92,8.77-1.81,1.6-3.81,2.99-5.89,4.04-3.57,1.8-6.72,4.53-10.79,5.24-.52.09-1.37.82-1.82-.25-.42-2.21-.73-4.4.74-6.4,1.42-.09,2.69-.69,3.89-1.34,5.94-3.21,11.38-7,15.82-12.24,3.5-4.14,6.5-8.74,10.69-12.28,1.78-1.51,3.44-3.15,4.95-4.93.41-.08.74.05,1,.39Z"/>
  <path class="cls-26" d="M266.95,109.23c1.26,1.08.79,2.51.7,3.83-.42,6.39.12,12.77.05,19.16-.02,1.92-.41,3.79-.43,5.71-.01,2.17.17,4.28.75,6.38.63,2.28.47,4.6.12,6.93-.32,2.12,0,4.29-.45,6.42-.46,2.15-1.51,3.91-3.18,5.24-.5.39-1.73,1.55-1.94-.44.02-7.67.06-15.34.07-23.01.01-7.99-.04-15.97.03-23.96.02-2.52.22-5-2.22-6.65.12-1.4,1.12-1.82,2.24-1.61,1.56.3,3.13.72,4.27,1.99Z"/>
  <path class="cls-82" d="M131.34,173.36c-2.99.42-5.7-1.12-8.62-1.25-2.04-.09-3.98-.69-5.94-1.21-1.66-.43-3.18.35-4.63,1.01-.74.33-1.18,1.18-.72,2.15.39.81.55,1.81,1.13,2.42,1.59,1.67,1.06,3.77,1.42,5.68.14.76-.29,1.27-1.12,1.28-3.5.05-6.87-.52-10.09-1.96-1.47-.66-2.8-1.85-4.62-1.37-.12-.09-.24-.18-.37-.26-1.11-.36-1.91-1.28-2.98-1.71l.03.02c-1.66-1.73-3.86-2.78-5.52-4.51-.39-.41-1.1-.58-.91-1.36.24-.35.48-.7.72-1.06,1.99,1.13,3.51,2.85,5.31,4.23,2.98,2.27,6.18,3.85,9.88,4.47,1.2.2,2.13-.26,2.93-1.01.81-.76.25-1.67-.15-2.31-1.65-2.66-3.5-5.15-6.55-6.39-.44-.18-.93-.27-1.32-.56-1.87-1.37-3.74-2.74-5.78-3.85,1.08-1.68,2.16-3.37,3.24-5.05.37-1.42.97-2.69,2.18-3.61,1.43.89,2.61,2.06,3.79,3.24,1.7,1.69,3.92,2.63,5.86,3.98,2.38,1.67,5.04,2.88,7.59,4.26,2.47,1.34,5.29,2.07,8,2.91,2.37.73,4.82,1.23,7.23,1.83Z"/>
  <path class="cls-33" d="M189.36,82.9c4.71-1.89,9.42-3.8,14.14-5.68,5.56-2.21,11.13-4.42,16.71-6.59,6.19-2.4,12.42-4.72,18.61-7.15,4.17-1.65,8.24-3.52,11.91-6.15.78.99-.38,1.45-.68,2.3,1.16.11,2.17-.31,3.22-.42.59-.06,1.3-.22,1.54.52.22.68-.35,1.09-.84,1.45-.7.51-1.6.49-2.37.82-2.54,1.09-5.13,1.99-7.88,2.4-.61.09-1.11.44-1.56.84-1.08.95-2.35,1.5-3.67,2.11-1.85.84-3.5,2.24-4.91,3.8-.15.1-.32.17-.5.21-1.23-.26-2.46-.4-3.68.09-.22.09-.5.04-.69.17-4.65,3.24-10.33,4.13-15.28,6.7-1.4.73-2.8,1.35-3.82,2.59-1.09,1.24-2.69,1.71-4,2.63-1.36,0-2.43,1.11-3.83.95-.38-.98.47-1.25,1.01-1.59,5.16-3.25,9.9-7.17,15.58-9.6,1.11-.47,2.03-1.46,3.15-1.95-4.89,2.71-9.85,5.41-14.61,8.46-3.78,2.43-7.77,4.54-11.78,6.59-.88.45-1.8,1.02-2.87.47.66-1.69,2.4-1.51,3.67-2.29-1.39.15-2.66.51-3.7,1.46-1.7,1.56-3.97,1.59-6,2.24-.8.26-1.56-.19-1.78-1.1-.24-.99.08-1.85,1.05-2.22,1.18-.45,2.31-.99,3.44-1.53.19-.09.71-.01.45-.53Z"/>
  <path class="cls-10" d="M233.41,71.03c1.38-2.12,3.27-3.57,5.68-4.32.41-.13.83-.17,1.11-.51,1.66-2.04,4.08-2.62,6.45-2.94,1.59-.22,2.85-1.06,4.25-1.58.94-.35,2.05-.1,2.85-.84.34-.31.95-.53.71-1.09-.2-.45-.72-.22-1.13-.13-.93.2-1.86.42-2.8.56-.45.07-1.06.17-1.3-.35-.28-.6.34-.83.72-1.04.63-.33.81-.83.76-1.48,1.55-1.61,3.19-3.13,4.99-4.47.66.42-.13,1.15.42,1.7,1.5-.45,2.99-1.03,4.38-1.82,2.07-1.19,4.22-2.18,6.39-3.15,1.26-.57,2.69-.57,3.92-1.23.46-.24.94-.12,1.37.13.63.36,1.24.28,1.89.03,1.13-.43,2.27-.88,3.26.33.4.49,1.05-.27,1.5.22,0,.12,0,.23.01.35.88.76-.04,2.11.93,2.84.21.22.39.48.39.78-.04,1.43.65,2.29,1.93,2.9.87.41,1.31,1.06-.13,1.39-2.5-.9-4.88-.4-7.21.64-.49.21-.99.41-1.54.38-2.32.03-4.66.3-6.95-.33-.3-.08-.65.05-.8.31-.8,1.39-2.4,1.74-3.48,2.78-1.25,1.21-2.88,1.5-4.53,1.04-.9-.26-1.44-.25-1.9.65-.51,1-1.38,1.38-2.53,1.34-1.71-.07-3.32.28-4.75,1.35-.77.58-1.74.69-2.68.91-3.02.71-6.37.69-8.51,3.57-.68.91-1.77,1.21-2.8,1.53-.37.12-.88.28-.87-.45Z"/>
  <path class="cls-5" d="M143.96,187.81c-3.46-2.3-7.23-3.68-11.43-3.62-1.59.02-3.07-.23-4.52-.91-1.6-.75-3.49-.54-5.07-1.55-.85-.54-1.22-.86-.59-1.76.45-.64.58-1.45.09-2.01-.56-.63-1.33-.19-1.99.11-.22.1-.43.23-.66.27-.84.13-1.71-.1-1.98-.87-.26-.75.63-1,1.17-1.36,3.06-2.03,6.43-1.56,9.66-.87,2.52.54,5.08.62,7.61,1.07,2.85.51,4.83,2.56,7.37,3.58,1.57.63,3.05.81,4.71.35,1.51-.41,1.75-1.18.94-2.32-.78-1.1-.59-1.6.74-1.72,1.9-.18,3.67-.91,5.5-1.39-.39,1.24-.72,2.48-.69,3.81.03,1.08-.63,1.89-1.35,2.65-.9.96-1.94,1.79-2.67,2.9-2.02,1.69-4.28,2.94-6.83,3.64Z"/>
  <path class="cls-108" d="M194.57,117.51c4.12,1.48,3.85,5.07,3.38,8.19-.76,5.06.99,9.12,3.83,12.99,2.29,3.13,5.8,4.73,8.82,6.93,3.54,2.57,7.99,3.45,11.68,5.8.38.24.92.22,1.38.32.93-.67,1.85-.09,2.77.03,5.13.65,10.04.13,14.54-2.64,3.11-1.91,6.05-4.08,9.03-6.2,1.03-.73,2.06-1.45,3.18-2.02.79-.39,1.6-.89,2.53-.34.16,1.63-.42,2.94-1.68,3.97-4.08,1.57-7.42,4.38-11.11,6.6-4,2.41-8.29,3.56-12.99,3.61-5.48.06-10.74-.83-15.86-2.71-5.09-1.87-8.78-5.54-12.15-9.56-1.81-2.16-3.48-4.43-5.03-6.79-1.2-1.82-2.77-3.29-4.24-4.87-.13-4.56-.41-9.13,1.91-13.34Z"/>
  <path class="cls-63" d="M265.15,176.25c-2.46,1.41-5.06,2.48-7.89,2.86-.61.08-1.19.08-1.49.73-.56.61-1.32.5-2.03.51-2.34.03-4.69,0-7.03.01-1.56,0-3.06-.18-4.6-.56-9.38-2.31-18.63-5.14-28.17-6.81-3.31-.58-6.65-1.02-10-1.19-5.37-.28-10.69-.02-15.59,2.65-1.11.61-2.19,1.26-3.09,2.16-3.81,3.79-8.4,3.48-13.11,2.52-.14-2.24.64-4.23,1.73-6.12.52-.39,1.07-.21,1.53.06,1.55.92,3.01.48,4.46-.22,3.8-1.83,7.68-3.46,11.95-3.77,4.2-.3,8.38-.18,12.59.01,5.66.27,11.14,1.59,16.71,2.37,7.43,1.78,14.78,3.94,22.27,5.49,3.64.75,7.3,1.33,11.04.71.36-.06.72-.01,1.06.11.37.47.73.63,1.37.32,2.04-.96,4.25-1.42,6.44-1.94.61-.14,1.26-.45,1.85.09Z"/>
  <path class="cls-121" d="M400.71,140.58c.71,4.1.85,8.19-.23,12.25-.38.73-.7,1.51-1.63,1.73-3.59.85-5.55,3.57-7.28,6.48-2.11,3.55-5.16,6.06-8.61,8.17-.41.25-.85.44-1.34.48-.28,0-.53-.07-.75-.26-.12-.93.6-1.24,1.21-1.58,3.17-1.71,5.18-4.61,7.27-7.35,1.94-2.53,1.49-5.56,1.01-8.49-.12-.75-.88-1.12-1.26-1.73-.09-.37,0-.71.12-1.05,1.42-3.95.03-7.23-2.43-10.26-.4-.5-1-.89-.89-1.66.86-.52,1.34.17,1.85.62.72.64,1.45,1.26,2.35,1.64.88.37,1.8.87,2.71.18.55-.42.57-2.85.13-3.59-.53-.89-1.61-1.52-1.31-2.8.94-.74,1.69-.21,2.38.4,1.34,1.2,2.61,2.48,3.57,4,.78,1.25,1.73,2.25,3.12,2.8Z"/>
  <path class="cls-9" d="M377.78,87.91c.69.55,1.42,1.05,2.05,1.66,1.71,1.66,2.25,4.24,1.37,6.28-.84,1.95-2.72,3.02-5.34,2.83-3.38-.24-6.66-1.14-9.57-2.81-3.3-1.9-6.76-2.43-10.47-2.32-2.93.09-5.87-.11-8.8-.18-.82-.45-1.74-.28-2.61-.39-.72-.09-1.34-.41-1.38-1.15-.05-.87.72-.97,1.38-1.05.53-.07,1.07-.09,1.58-.26,2.71-.34,5.44,0,8.2-.21-1.32-1.43-3.33-1.74-4.48-3.25.45-1.64.92-1.91,2.09-.86,1.34,1.19,2.84,1.94,4.52,2.41,1.02.28,1.81.39,1.58-1.13-.13-.88.33-1.36,1.28-1.2,1.04.42,1.98,1.04,3.04,1.42,2.72,1.38,5.33,2.97,8.08,4.28,1.48.71,2.98,1.49,4.98,1.16-.96-1.06-2.11-1.44-3.1-2.05-.3-.19-.7-.42-.64-.79.08-.5.59-.53,1.01-.55.8-.05,1.53.22,2.26.49.56.21,1.11.48,1.72.45.92-.04,1.58-.23.96-1.4-.42-.81-.34-.85.26-1.38Z"/>
  <path class="cls-52" d="M276.39,179.6c-1.51.81-2.87,1.85-4.41,2.62-3.77,1.89-7.84,2.03-11.89,2.26-6.76.38-13.38-.76-19.94-2.17-7.96-1.71-16.01-2.75-24.09-3.66-5.8-.65-11.61-1.03-17.36.16-3.26.67-6.73.79-9.57,2.89-.71-.67-.75-.91,0-1.68,1.19-1.23,2.68-2.03,4.25-2.65,6.41-2.55,13.08-2.61,19.84-2.12,4.15.3,8.11,1.6,12.23,1.92,1.1,0,2.12.39,3.16.67,6.02,1.58,12.13,2.86,18.26,3.88,5.15.86,10.39.52,15.5-.82,3.77-.99,7.61-1.71,11.39-2.66,1.17-.29,2.47-.47,2.64,1.35Z"/>
  <path class="cls-86" d="M377.78,87.91c-.8.56-.06.88.21,1.27.83,1.2.6,1.77-.87,2-.73.12-1.41-.06-2.09-.37-.97-.45-1.98-.87-3.31-.57,1.33.79,2.54,1.49,3.71,2.23.33.21.79.47.58.98-.17.41-.62.25-.96.28-1.74.17-3.34-.47-4.78-1.24-2.73-1.46-5.57-2.72-8.1-4.53.2-.25.49-.32.95-.42-1.2-.82-2.47-1.28-3.61-1.97-4.5-2.74-8.85-5.74-13.48-8.27-.79-.43-1.76-.81-1.9-1.93.12-.5.24-.99.36-1.49,3.75,1.02,7.28,2.65,10.9,4.04,6.43,2.47,12.8,5.07,19.07,7.93,1.18.54,2.4,1.07,3.32,2.06Z"/>
  <path class="cls-75" d="M192.66,130.85c2.29.95,3.44,3.03,4.79,4.9,2.7,3.73,5.43,7.41,8.74,10.67,4.15,4.09,9.27,5.99,14.8,7.13,3,.61,6.03.74,9.1.77,5.7.05,10.62-1.95,15.18-5.19,2.05-1.45,4.19-2.77,6.35-4.06.7-.42,1.56-.64,2.43-.5-.71.9-.98,2.08-1.86,2.87-2.64.65-4.67,2.45-6.86,3.85-7.37,4.74-15.43,5.39-23.86,4.69-8.31-.69-14.98-4.63-21.05-9.97-1.47-1.29-2.83-2.82-4.9-3.21-1.7-3.8-3.09-7.68-2.85-11.94Z"/>
  <path class="cls-55" d="M276.39,179.6c-.47-.89-1.01-1.23-2.16-.95-5.04,1.22-10.09,2.42-15.18,3.38-4.72.89-9.54.94-14.22-.16-6.08-1.44-12.34-2.09-18.29-4.11-.33-.11-.71-.05-1.07-.08-4.23-.97-8.47-1.94-12.81-2.31-6.54-.56-13.01-.36-19.24,2.03-2.14.82-4.07,2.09-5.91,3.38-1.89,1.33-3.91,2.02-6.06,2.56-1.75.44-3.5.86-4.74,2.34-.35.42-.85.7-1.43.32-1.07-1.14-1.9-2.39-2.08-3.99,1.04-.9,2.33-.88,3.58-.94,3.69-.19,7.08-1.2,10.1-3.38,6.72-4.85,14.29-5.84,22.31-4.99,9.91,1.05,19.44,3.77,28.97,6.47.58.16,1.19.2,1.76.37,2.16.96,4.49,1.22,6.78,1.55,5.5.79,10.94.43,16.23-1.43.18-.08.37-.14.57-.18,3.96-.07,7.31-2.05,10.83-3.5,1.11-.46,2.2-.95,3.43-.91.71.02,1.47-.02,1.83.81-.65,1.59-1.57,2.95-3.19,3.71Z"/>
  <path class="cls-3" d="M341.07,155.03c-.12.23-.32.26-.55.23-1.91.31-3.72.9-5.45,1.75-3.34,1.63-6.97,2.18-10.61,2.6-4.87.57-9.74,1.27-14.66.24-2.07-.44-4.03-1.18-6-1.87-1.92-.66-3.82-1.03-5.81-.48-1.04-1.23-.91-2.78-1.14-4.23.23-1.25,1.24-.88,1.95-.8,1.26.14,2.48.64,3.53,1.31,6.49,4.18,13.74,3.82,20.96,3.49,1.67-.08,3.34-.03,5.02-.24,3.29-.41,6.17-1.87,9.09-3.23.54-.25,1.08-.53,1.64-.74,3.92-1.46,6.63-.79,8.98,2.63,2.41,3.52,5.42,6.4,8.66,9.1,3.16,2.63,6.66,4.69,10.48,6.21,2.64,1.05,5.41.94,8.17.68.66-.06,1.3-.28,1.92.1.41.94-.46.91-.91,1.11-.64.28-1.38.34-1.94.82-3.25.84-6.3,0-9.23-1.28-4.58-1.99-8.76-4.65-12.82-7.57-2.96-2.13-5.7-4.35-7.52-7.56-.81-1.42-2.31-1.8-3.74-2.26Z"/>
  <path class="cls-69" d="M283.12,131.58c-1.05.45-1.31-.44-1.49-1.04-2.1-6.9-1.61-10.95,4.13-15.95,2.53-2.2,5.18-4.21,8-6.03,2.93-1.89,7.22-1.55,9.67.89,2.94,2.93,6.33,4.15,10.43,3.01,1.92-1.02,4.13-.99,6.15-1.66,1.46-.48,2.83-.98,2.93-2.85.01-.21.16-.45.61-.52.38.71.26,1.48.1,2.25-.27,1.37-.5,2.75-1.41,3.89-.36.3-.67.71-1.22.63-2.15-.31-4.17.41-6.17.96-4.7,1.29-8.87.51-12.54-2.8-3.77-3.39-6.77-2.73-10.09-.48-.72.48-1.54.98-1.58,2.04-3.46,2.83-4.8,6.81-6,10.89-.65,2.23-.46,4.63-1.5,6.77Z"/>
  <path class="cls-32" d="M216.52,135.94c-.59.4-.94.72-.29,1.48,1.02,1.2,1.87,2.54,2.79,3.83.08.4-.19.57-.49.72-1.86.17-3.7-.1-5.52-.38-1.46-.22-2.44-1.22-2.86-2.67-.53-1.85-.88-3.74-1.01-5.65-.15-2.09.56-2.86,2.68-3.25,2.83.74,5.42-.25,7.99-1.18,2.8-1.01,5.56-2.15,8.29-3.34,1.63-.71,2.9-1.86,3.85-3.36,2.44-1.13,2.55-2.79,1.11-4.82-.2-.28-.23-.67-.03-1.02.65-.61,1.44-.9,2.3-1.03.96-.05,1.92-.09,2.88-.02,1.88.13,2.56,1.14,2,2.91-.24.75-.66,1.41-.93,2.14-1.43,2.89-4.19,4.34-6.65,6.12-3.16,2.28-6.9,3.29-10.41,4.81-1.44.62-2.78,1.39-4.08,2.26-.9.6-1.5,1.36-1.62,2.46Z"/>
  <path class="cls-74" d="M389.23,150.3c1.09.12,1.59.95,1.71,1.83.54,3.92.3,7.5-2.74,10.71-2.28,2.4-4.62,4.63-7.28,6.56-1.54,1.85-3.81,2.05-5.92,2.46-1.38.27-2.84.09-4.27.05-.44-.01-1.01.03-.99-.7-2.78-1.2-5.31-2.8-7.84-4.45-1.65-1.07-2.88-2.45-3.71-4.2,1.17-.33.71-1,.34-1.65-.77-1.37-.65-2.78-.52-4.32.14-1.67,1.96-1.46,2.31-2.69-.26-.39-.29-.77.06-1.13.67,3.11,1.81,6.07,2.86,9.06-.73,2.49-.45,3.27,1.66,4.9,5.09,3.94,12.87,3.52,18.22-1.82,1.56-1.56,1.35-3.3.74-5.14,1.58-2.19,1.76-4.79,2.13-7.33.92-.95,1.81-1.96,3.23-2.16Z"/>
  <path class="cls-8" d="M201.63,84.33c1.37-.2,2.45-1.52,4-1.06.16.88-.57,1.13-1.11,1.42-2.44,1.3-4.69,2.86-6.81,4.62-.81.67-1.81.94-2.77,1.24-1.87.57-3.2,1.54-3.15,3.72-4.66,2.17-9.27,4.57-14.71,3.14-3.41-2.21-3.61-5.83-.38-8.22,3.84-2.84,8.26-4.54,12.65-6.3.24.02.47.04.73.06-.65.59-2.88,1.89-3.87,2.09-1.3.27-1.82,1.1-1.39,2.2.44,1.12,1.39.45,2.27.37,3.06-.26,5.06-2.81,7.92-3.41.47-.1.9-.37,1.33.19-.96,1.47-2.99,1.22-4.08,2.46-1.42,1.45-3.29,2.15-5.09,2.91-1.54.65-3.04,1.43-4.66,1.89-.51.15-.99.43-1.43.74-.4.28-.81.63-.67,1.17.16.64.74.75,1.29.74,1.68-.02,3.11-.82,4.52-1.6,1.42-.78,2.62-1.96,4.06-2.63,3.33-1.55,6.3-3.7,9.52-5.41.55-.29,1.1-.81,1.82-.34Z"/>
  <path class="cls-101" d="M130.6,122.92c.02.95,0,1.84-.57,2.74-.6.97-.4,2.18.31,3.03.66.78,1.64.7,2.64.36,3-1,6.05-1.98,8.78-3.54,2.15-1.23,3.66-3.41,4.89-5.58,1.38-2.44,2.71-4.78,5.61-5.7.83-.27,1.19-1.14,1.75-1.76-.67,4.7-3.35,8.49-5.68,12.42-3.72,6.26-9.34,10.62-15.16,14.76.28-1.3,1.24-2.19,2.06-3.1.98-1.09,1.71-2.47.96-3.55-.79-1.15-1.83-2.43-3.63-2.58-1.45-.12-3.15.08-3.97-1.77-.77-1.74-.07-3.96,2.02-5.74Z"/>
  <path class="cls-50" d="M239.9,179.86c-2.6-.05-4.97-1.12-7.41-1.78-6.91-1.86-13.82-3.75-20.92-4.63-6.05-.74-12.17-1.16-18.06,1.25-2.06.84-4.06,1.78-5.86,3.09-3.36,2.45-7.08,3.76-11.28,3.75-1.06,0-2.12.3-3.18.46-1.14-.68-.77-1.9-1.04-2.89,1.95,0,3.91-.11,5.85.04,2.7.21,4.77-.98,6.62-2.67,3.27-2.98,7.15-4.44,11.49-4.94,8.83-1.03,17.38.63,25.88,2.65,6.57,1.56,13.11,3.23,19.64,4.97,1.58.42,3.12.77,4.75.7,1.61.67,3.3.3,4.95.37,1.72.07,3.44-.11,5.16-.02.82-.2,1.64-.48,2.51-.36.41-.2.81-.33,1.17.1-.48,1.47-1.89,1.12-2.88,1.29-5.89.98-11.68.15-17.39-1.37Z"/>
  <path class="cls-23" d="M176.75,168.3c.75-1.02,1.84-1.59,2.89-2.22,2.22.76,4.38.12,6.58-.21,4.82-.72,9.67-1.08,14.54-.97,2.05.05,4.11.14,5.84-1.28.23-.19.56-.2.84,0,5.48,1.32,11.08,2.22,16.23,4.7.3,1.46,1.27,2.12,2.66,2.49,4.69,1.22,9.37,2.52,14.01,3.91.65.19,1.79.03,1.61,1.32-.83.48-1.67.13-2.45-.06-6.7-1.58-13.41-3.15-19.97-5.24-2.89-.92-5.88-1.11-8.84-1.42-3.58-.37-7.09-1.11-10.63-1.67-4.68-.74-9.2.01-13.66,1.31-1.5.43-2.97.95-4.51,1.19-2.03.31-3.81-.13-5.12-1.84Z"/>
  <path class="cls-22" d="M369.75,171.2c3.67.99,7.09.26,10.36-1.5.25-.14.54-.21.82-.31.24,0,.49,0,.73,0-.89,1.79-2.57,2.24-4.34,2.52-3.7.52-7.39.72-10.94-.8-3.69-1.59-7.19-3.52-10.26-6.14-3.29-2.8-6.31-5.79-8.79-9.39-2.24-3.25-5.23-3.51-9.44-1.66-2.4,1.05-4.64,2.54-7.29,2.97-7.4,1.21-14.82,1.52-22.24.15-.81-.15-1.57-.58-2.33-.93-2.12-.98-4.22-2-6.35-2.96-.94-.42-1.93-.68-2.85.1-.47-1.35-.45-2.7.03-4.04,2.55.27,5,.84,6.71,2.93,2.92,3.56,6.92,4.47,11.19,4.62,3.93.14,7.86-.1,11.79-.03,4.72.09,8.74-2.27,12.74-4.42,1.71-.92,3.54-1.46,5.38-1.94,1.58-.41,2.97-.08,3.91,1.63,1.96,3.56,4.3,6.87,6.76,10.12,2.31,3.05,5.35,5.07,8.59,6.9,1.82,1.03,3.61,2.13,5.8,2.17Z"/>
  <path class="cls-48" d="M195.5,142.79c1.24-.9,2.1.17,2.77.78,3.68,3.35,7.61,6.31,11.97,8.75,3.04,1.7,6.34,2.38,9.67,3.02,2.72.52,5.48.32,8.22.39,7.36.19,13.75-2.48,19.67-6.59.98-.68,2.06-1.21,3.1-1.79.43-.24.88-.44,1.27.09-.5.6-.99,1.2-1.49,1.8-4.25,2.08-8.19,4.84-12.79,6.14-4.51,1.27-9.11,2.11-13.81,2.27-.48.02-.96-.02-1.44.01-1.55.11-1.7.36-1.04,1.73.31.63.83,1.23.25,1.97-5.67-.2-10.79-2.09-15.54-5.11-.77-.99-.05-1.15.72-1.34.54-.13,1.35,0,1.42-.78.06-.67-.63-.95-1.12-1.28-3.01-2.04-5.94-4.2-9.45-5.37-1.31-1.3-1.89-2.97-2.4-4.68Z"/>
  <path class="cls-129" d="M34.66,187.05c.18,0,.36,0,.54,0,3.81,0,3.83-.03,6.48,2.53,2,1.93,4.17.95,6.24.39,2.41-.66,4.67-1.78,7.31-1.5,2.64.28,3.74,1.67,2.9,3.97-7.45,2.34-15.06,2.28-22.72,1.43-.67-.07-1.3-.19-1.76-.74-1.74-1.89-2.9-4.07-3.36-6.6-.08-.46,0-.94.39-1.3.24.25.48.5.72.75.65.56.4,2.01,1.81,1.8.48-.25.96-.49,1.44-.74Z"/>
  <path class="cls-37" d="M251.35,111.42c-.47.71-1.14.86-1.88.57-2.21-.88-4.38-1.75-6.34-3.24-5.43-4.13-11.36-7.47-18.1-8.76-4.18-.79-8.34.21-12.15,2.24-.37.19-.66.52-1.12.51-1.2.8-2.45,1.19-3.85.52-.48-.89.32-1.16.8-1.49,6.09-4.12,12.66-5.47,19.82-3.4,3.51,1.01,7.01,2.06,10.38,3.47,2.1.87,4.32.78,6.47,1.21,2.11,1.42,3.51,3.43,4.64,5.66.46.9.89,1.81,1.34,2.71Z"/>
  <path class="cls-73" d="M252.89,92.62c-6.41.04-12.82.07-19.23.12-10.07.07-20.13.14-30.2.21-.08-.23-.02-.41.2-.53,1.13-.49,2.33-.19,3.49-.3,3.67-.16,7.3.57,10.82.35-1.65-.05-3.45.09-5.24-.17-.65-.09-1.43.04-1.66-.75-.24-.84.43-1.28,1.04-1.69,1.65-.46,3.31-.33,4.97-.11,1.85,1.06,3.91.87,5.91.91,3.42.07,6.84-.05,10.26.01,1.13.02,2.26.09,3.33-.49.58-.31,1.31-.26,1.94-.02,1.56.59,3.13.38,4.71.18.3-.04.6-.23.88-.16,3.26.8,6.45-.55,9.72-.27,3.28.28,6.61.06,9.91.06.54,0,1.08,0,1.62-.06,17.73-.03,35.46-.17,53.18.07,6.24.08,12.49.18,18.73.28.66.01,1.33.01,1.93.34-.07.94-.13,1.05-1.32,1.09-2.1.08-4.21.21-6.3.13-4.26-.17-8.52.08-12.78-.04-4.13-.12-8.26-.49-12.4-.4-8.57.2-17.15.24-25.72.34-7.96-.12-15.93.12-23.9-.08-1.38-.03-2.76.1-3.93.97Z"/>
  <path class="cls-28" d="M280.67,91.21c4.7.21,9.4-.17,14.1-.09,4.64.08,9.31-.44,13.95-.18,4.33.24,8.67.2,13,.42,2.13.11,4.37,0,6.56-.13,3.15-.18,6.32-.04,9.48-.05.58,0,1.22.2,1.7-.33,2.17-.87,4.34-.9,6.5.03-.48.53-1.12.27-1.7.34-.41.05-.94.01-.93.58.01.45.44.7.86.8.95.23,2.06-.11,2.84.77-6.17-.02-12.33-.02-18.5-.07-8.03-.06-16.05-.16-24.08-.25-.6,0-1.19-.05-1.79-.08-2.25-.35-4.52-.11-6.79-.14-3.89-.05-7.77.06-11.66-.05-1.31-.04-2.92.2-3.55-1.57Z"/>
  <path class="cls-39" d="M176.75,168.3c2.93,2.14,5.94,1.39,9.03.35,5.84-1.96,11.74-2.34,17.82-.9,3.64.86,7.4,1.3,11.14,1.57,3.17.23,6.02,1.5,9.03,2.21,6.09,1.45,12.06,3.43,18.28,4.34,1.76-.57,3.4.28,5.1.44,3.13.3,6.22.41,9.28-.48,1.12-.32,1.97-.85,2.26-2.05,1.45-1.44,2.19-3.27,2.82-5.15-.08,1.56.97,2.54,1.83,3.62.72.95.24,1.83-.23,2.65-.87,1.53-5.49,3.45-7.36,3.14-9.56,1.39-18.33-2.21-27.35-4.28-2.44-.56-4.85-1.24-7.27-1.86-3.33-1.2-6.84-1.63-10.3-2.08-4.38-.57-8.8-.83-13.23-1.06-5.78-.3-11.2.94-16.56,2.81-2.18.76-4.24.63-6.14-.77.52-.91,1.02-1.83,1.84-2.52Z"/>
  <path class="cls-4" d="M245.37,103.05c-2.7.72-5.11-.28-7.59-1.15-5.44-1.92-10.84-4.14-16.76-4.04-4.06.06-7.66,1.67-11.06,3.71-.74.44-1.73.61-2.14,1.53-1.72,1.4-2.9,1.49-4.39.32,3.03-2.1,5.98-4.35,9.49-5.59,8.45-2.99,16.98-3.33,25.33.21,2.64,1.12,5.11,2.83,7.12,5.01Z"/>
  <path class="cls-71" d="M391.75,133.38c-.02.61.38,1.06.74,1.39,1.34,1.23,1.46,2.62,1.14,4.35-.21,1.18-.54,1.54-1.66,1.46-1.65-.11-2.94-.89-4.14-1.93-.57-.5-.94-1.29-1.85-1.32-1.46-.05-2.72-.87-4.15-1.07-2.32-.33-4.62-.65-6.97-.6-1,.02-2.07.07-2.76-.92.14-1.4.77-2.63,1.33-3.88.35-.31.79-.4,1.17-.21,2.39,1.19,4.81.49,7.23.19,2.83-.34,5.63-.35,8.25,1.03.69.36,1.45.62,1.65,1.51Z"/>
  <path class="cls-72" d="M60.64,81.83c-1.08.22-2.06.5-2.62,1.64-.28.56-1,.78-1.66.88-1.81-1.25-3.58-2.56-5.43-3.74-2.2-1.4-4.6-2.22-7.25-2.11-.79.03-1.54-.1-2.17-.63-.8-.49-.83-1.17-.3-1.81.67-.81,1.26-1.77,2.46-1.93.98.14,1.81.43,2.35,1.4.65,1.15,1.95,1.1,2.9.84,1.84-.49,3.42-.01,5.02.72.96.44,1.94.53,2.97.25,1.42-.39,2.4-1.05,2.23-2.73-.14-1.38.62-2.06,1.92-2.36,1.66-.39,3.32.03,4.97-.13,0,.48,0,.97,0,1.45-2.69,2.18-4.49,4.94-5.4,8.28Z"/>
  <path class="cls-139" d="M391.75,133.38c-2.77-2.04-5.95-2.62-9.22-2.11-3.1.49-6.11.92-9.09-.41.68-1.31,1.47-2.55,2.52-3.6.72-.44,1.27.04,1.81.37,1.19.73,2.42.88,3.8.67,1.78-.28,3.6-.28,5.38-.03,2.22.31,4.42.28,6.64.16.72-.04,1.43-.14,2.08.28,2.75,3.51,4.53,7.42,5.05,11.88-1.3.19-2.1-.38-2.75-1.5-1.09-1.87-2.59-3.42-4.13-4.93-.61-.6-1.25-.89-2.08-.77Z"/>
  <path class="cls-112" d="M297.97,157.49c1.28-1.43,2.87-.94,4.29-.5,3.76,1.17,7.43,2.51,11.43,2.9,2.02.2,3.95-.15,5.87-.3,4.68-.37,9.41-.74,13.88-2.43,1.57-.59,3-1.51,4.65-1.91.82-.2,1.6-.5,2.41,0-1.63,1.12-2.92,2.68-4.68,3.65-4.28,1.36-8.74,2-13.08,3.16-5.07,1.37-10.21,1.12-15.3-.12-1.87-.45-3.74-.98-5.6.03-1.4-.38-1.79-1.76-2.64-2.68-.49-.53-.84-1.2-1.25-1.8Z"/>
  <path class="cls-84" d="M360.39,152.77c-.02.38-.04.75-.06,1.13-1.91-.12-2.1-1.67-2.48-3.03-1.22-4.31-1.15-8.68-.91-13.13.31-5.81.14-11.64.19-17.47.02-2.32.98-4.35,2.05-6.34.8,5.28.58,10.6.59,15.91.01,5.76.06,11.52.15,17.27.03,1.92.38,3.77.48,5.65Z"/>
  <path class="cls-122" d="M301.86,161.97c.72-1.27,1.89-1.42,3.12-1.1,3.01.78,6.07,1.41,9.15,1.59,3.39.2,6.77-.37,10.09-1.26,3.63-.97,7.32-1.73,10.99-2.56.18-.04.42.16.63.25-6.72,4.84-14.31,7.1-22.51,6.83-3.23-.11-6.5-1-9.59-2.15-.72-.27-1.25-1.06-1.87-1.61Z"/>
  <path class="cls-133" d="M353.24,101.94c1.38,1.77,3.26,3.18,3.85,5.5-.67,1.16-1.75,1.05-2.85.93-3.82-.42-7.04-2.35-10.21-4.25-2.73-1.64-5.57-3.04-8.46-4.35-3.4-1.54-6.9-1.91-10.43-.33-.41.18-.81.19-1.23.1-.55-.78-1.91-1.29-1.56-2.32.34-1,1.73-.85,2.68-1.05,1.03-.22,2.11-.22,3.17-.32,3.42-.11,6.64.79,9.74,2.08,2.32.97,4.67,1.9,6.94,3,2.65,1.29,5.43,1.82,8.35,1.02Z"/>
  <path class="cls-114" d="M66.03,72.1c-.84.48-1.65.82-2.7.43-.98-.36-2,.13-2.99.35-.86.2-.8.93-.79,1.59.05,2.51-2.2,4.41-4.55,3.38-2.55-1.12-5.08-1.15-7.71-1.07-.36.01-.96.06-1.03-.1-.53-1.2-1.59-1.8-2.6-2.47.15-1.34,1.19-1.65,2.24-1.95,2.47.89,4.72.55,6.9-.98,1-.7,2.47-.43,3.52-1.22,4.55.83,9.13.73,13.72.58-.65.64-1.48.36-2.22.34-.89-.02-1.5.24-1.79,1.1Z"/>
  <path class="cls-110" d="M303.39,135.17c2.47-3.51,6.3-5.16,9.87-7.16,3.88-2.17,8.28-2.88,12.41-4.35,2.71-.96,5.53-1.42,8.37-1.79-.23,1.17-1.22,1.52-2.13,1.9-1.98.83-4.03,1.49-5.9,2.55-.16.08-.33.14-.5.2-2.61,1.22-5.04,2.75-7.54,4.16-3.62,2.05-7.37,3.78-11.37,4.95-1.12.33-2.25.49-3.2-.47Z"/>
  <path class="cls-14" d="M290.61,113.91c-.24-1-.07-1.52.9-2.18,4.07-2.79,7.07-3.38,11.27.39,3.1,2.78,6.58,3.73,10.57,2.84,2.93-.66,5.83-1.44,8.87-1.4-.75,3.47-5.41,7.3-9.09,7.47,0-.69.66-.95.95-1.46.63-1.1.46-1.52-.83-1.58-2.27-.11-4.52-.38-6.77-.72-2.72-.41-5.04-1.36-6.39-4.01-.61-1.19-1.86-1.61-3.21-1.56-2.29.19-4.5.57-6.28,2.21Z"/>
  <path class="cls-134" d="M238.82,120.38c.36-.88.76-1.75,1.06-2.65.41-1.24-.01-1.99-1.4-2.01-1.08-.02-2.16,0-3.24-.01-.17-.56.31-.71.61-.96,1.66-1.42,1.86-2.29.69-4.17-1.97-3.18-4.59-5.61-8.12-7.03-.9-.36-2.21-.21-2.58-1.53,1.61-.06,3.11.56,4.45,1.23,3.14,1.57,6.29,3.19,8.82,5.72,1.38,1.39,2.99,2.5,4.22,4.1,1.18,1.55,3.24,1.72,5.06,1.87,1.56.13,3.04.52,4.57.75.6.88.98,1.83,1.02,2.9-1.51.22-2.87-.63-4.38-.61-3.49.03-6.93.11-9.92,2.29-.24.18-.54.24-.85.1Z"/>
  <path class="cls-137" d="M221.88,143.77c4.82,3.01,10.05,4.18,15.61,2.87,2.9-.69,5.46-2.34,7.81-4.21,1.34-1.07,2.58-2.23,3.77-3.48,1.1-1.15,2.52-1.86,4.18-.9,0,.96-.67,1.5-1.33,2.01-3.22,2.48-6.43,4.98-9.66,7.45-3.52,2.69-7.57,4.08-12.12,3.46-2.58-.49-4.78-1.79-6.86-3.3-1.65-1.2-2-2.37-1.39-3.9Z"/>
  <path class="cls-54" d="M207.02,92.6c-1.18.03-2.35.06-3.53.08-1.31.38-2.69-.12-4,.28-4.22-.38-7.61,2.09-11.32,3.4-2.21.78-4.4,1.64-6.71,2.01-1.52.24-3.06,0-4.38-.95.14-.2.3-.39.58-.32,4.06,1.01,7.72-.3,11.29-2.02.85-.41,1.97-.07,2.61-.99.91-.79,1.9-1.42,3.03-1.9,1.57-.66,2.76-1.88,3.92-3.09,1.5-1.57,3.04-3.07,5.25-3.61.47-.11.89-.36,1.28-.65,3.24-2.53,6.87-4.33,10.77-5.58.65-.21,1.14-.65,1.71-.98.79-.45,1.64-.85,2.27.28-1.01,1.31-2.44,2.13-3.84,2.86-3.36,1.76-6.44,3.93-9.6,5.98-1.1.71-2.4,1.09-3.53,2.12,2.57.47,5.04-.27,7.41.45.38,1.22-.65,1.31-1.34,1.54-.72.24-1.5.29-1.87,1.1Z"/>
  <path class="cls-131" d="M238.82,120.38c4.7-3.5,9.8-3.68,15.14-1.78l.07-.05c.37.64.36,1.27,0,1.91-.05.56-.19,1.07-.8,1.29-5.29-2.86-9.91-1.32-14.2,2.21-4.29,3.54-9.15,6.02-14.41,7.77-1.2.4-2.3.98-3.05,2.07-1.68.72-3.37,1.43-5.05,2.15-.95-1.12.02-1.81.69-2.35,2.4-1.92,5.23-3.12,8.08-4.14,5.3-1.89,10.01-4.58,13.52-9.09Z"/>
  <path class="cls-113" d="M318.56,97.66c1.09.68,2.17,1.38,2.79,2.58-1.58,2.3-3.92,2.71-6.46,2.53-5.19-.35-10.38-.73-15.51.59-2.09.54-4.21.91-6.36,1.15-.71.08-1.44.28-2-.38,1.21-2.04,3.33-3.03,5.12-4.39,1.42.35,2.81.21,4.24-.09,4.2-.9,8.41-1.82,12.76-1.06,1.9.33,3.6-.63,5.41-.92Z"/>
  <path class="cls-24" d="M323.92,99.53c4.52-2.58,8.86-1.61,13.3.41,4.26,1.94,8.04,4.76,12.35,6.56,2.4,1.01,4.82,2.21,7.52.93.79,1.73,1.64,3.45,1.79,5.39-2.22.3-4.05-.48-5.7-1.95-1.67-1.49-4.08-1.65-5.79-3.1-3.36-2.68-7.1-4.71-10.97-6.54-.86-.41-1.75-.75-2.74-.67-.46.44-1,.31-1.53.22-2.37-.41-4.51.11-6.42,1.56-.99-.69-.98-2.03-1.82-2.82Z"/>
  <path class="cls-67" d="M377.32,171.92c1.39-.94,3.12-1.29,4.34-2.52,4.06-2.2,7.47-5.02,9.85-9.11,1.62-2.79,3.63-5.4,7.15-6.09.83-.16,1.23-.89,1.82-1.37-.31,3.99-2,7.46-4.03,10.81-1.51-.39-2.81.13-4.04.95-1.79,1.19-3.52,2.48-5.22,3.77-3.54,2.69-7.5,4.37-11.81,5.32-.48.08-.94.05-1.3-.33.84-1.02,2.35-.53,3.25-1.43Z"/>
  <path class="cls-6" d="M374.07,173.36c.48,0,.96,0,1.45,0-.11,1.17-1.19,1.04-1.9,1.41-5.02.78-9.45-1.1-13.81-3.15-1.95-.92-3.8-2.05-5.67-3.12-1.89-1.09-3.82-2.03-6.1-1.86-3.34-3.26-4.98-7.53-6.97-11.6,2.25-.52,3.52.9,4.48,2.51,1.5,2.52,3.5,4.41,5.89,6.1,4,2.83,8,5.6,12.44,7.74,3.01,1.45,6.12,2.19,9.43,2.3.33.01.59-.03.77-.31Z"/>
  <path class="cls-77" d="M372.1,134.75c2.73.89,5.6.06,8.36.76,1.89.48,3.93.45,5.52,1.83,1.47,1.63,2.83,3.31,3.63,5.42.99,2.6.92,5.09-.39,7.55-1.02.8-1.97,1.71-3.23,2.16-.11-1.44-.23-2.88-.34-4.32,2.18-3.82.09-6.75-3.27-8.87-3.12-1.96-6.66-2.26-10.13-.49-1.35-1.3-.85-2.66-.15-4.04Z"/>
  <path class="cls-80" d="M230.15,150.66c5.86.34,10.62-1.97,14.82-5.9,1.9-1.77,4.1-3.24,6.25-4.74.81-.56,1.39-1.28,2.03-1.97.99.68,2.19,1.16,2.46,2.54-3.17.54-5.31,2.85-7.86,4.47-3.22,2.05-6.08,4.65-9.73,6.02-4.4,1.65-8.85,1.82-13.4.83-.35-.08-.71-.11-1.06-.17-2.13-1.31-4.24-2.68-6.13-4.32-.29-.57-.84-1.09-.41-1.83.66-.23,1.14.21,1.65.48,2.69,1.44,5.46,2.67,8.3,3.79,1.01.4,2.05.55,3.08.79Z"/>
  <path class="cls-13" d="M348.04,166.63c1.34-1.06,2.65-.36,3.85.2,2,.94,3.95,2,5.87,3.1,4.95,2.84,10.09,4.96,15.96,4.51,3.48-1.09,7.1-1.5,10.64-2.29.66-.15,1.53-.64,1.97.45-2.1,1.9-4.84,2.42-7.41,2.87-6.89,1.2-13.74.57-20.32-1.86-3.87-1.43-7.24-3.83-10.4-6.48-.11-.09-.11-.33-.16-.5Z"/>
  <path class="cls-58" d="M207.44,163.62c-2.33,2.34-5.31,1.84-8.16,1.8-5.74-.08-11.38.68-17.02,1.61-1.08.18-1.99.05-2.62-.95,2.23-1.89,5.01-2.47,7.72-3.04,3.7-.78,7.5-1.22,11.26-.73,2.94.38,5.97.28,8.81,1.31Z"/>
  <path class="cls-60" d="M260.11,179.86c-.37,0-.74-.01-1.11-.02,2.48-1.61,5.35-2.33,8.02-3.5,3.64-1.61,6.69-3.79,9.2-6.89,1.76-2.17,3.96-3.98,5.54-6.33.16-.23.4-.48.74-.37.37.12.3.47.31.76.03.54.03,1.08.04,1.62-.04,2.48-.77,4.83-1.46,7.18-2.8.77-5.35,2.12-7.87,3.51-3.22,1.78-6.65,3.04-10.18,4.04h0c-1.07.18-2.15.81-3.23.02Z"/>
  <path class="cls-40" d="M175.27,186c.18-.03.44,0,.52-.11,2.12-2.95,5.63-2.83,8.61-3.87,1.95-.68,3.49-2.06,5.2-3.1,3.31-2.01,6.88-3.14,10.6-3.69,8.49-1.27,16.79.11,25.01,2.23.1.03.18.15.26.23-1.92-.02-3.74-.64-5.61-.97-8.65-1.54-17.27-2.18-25.75.92-1.76.64-3.4,1.48-4.73,2.81-.33.33-1.02.68-.24,1.26-2.49,1.54-4.26,3.93-6.55,5.69-2.42,1.87-5.48,1.25-7.3-1.4Z"/>
  <path class="cls-30" d="M395.66,128.71c-3.33.53-6.64.33-9.98.01-1.64-.15-3.32-.15-4.99.26-1.88.47-3.15-1.16-4.74-1.72,3.21-3.73,10.51-5.05,15.64-1.89,1.53.94,2.85,2.06,4.07,3.34Z"/>
  <path class="cls-35" d="M278.84,49.05c-.88.67-1.54,1.15-2.28-.35-.42-.87-1.49.05-2.26.17-.43.06-.76.55-1.29.52-4.46-.23-5.04.13-8.87,2.04-2.47,1.24-4.92,2.57-7.5,3.61-.45.18-.99.29-1.36-.08-.47-.46.04-.84.24-1.25.12-.25.12-.57.18-.85,2.33-1.82,4.25-4.16,6.93-5.54-.02,1.43-1.42,1.64-2.18,2.41-.72.73-1.65,1.24-2.25,2.78,4.29-3.66,9.04-5.06,13.85-6.37,1.72-.47,3.39-1.03,5.21-1.08,1.31-.04,1.7.47,1.59,1.67-.07.77-.02,1.55-.02,2.33Z"/>
  <path class="cls-45" d="M133.48,149.22c.05-1.48,1.14-2.44,1.83-3.6,2.28-.94,4.73-.75,7.09-.83,5.16-.17,10.33-.38,15.49-.33,6.83.07,13.68-.22,20.51.29,2.59.2,4.38,1.86,4.63,4.35-.2.31-.49.34-.81.26-2.01-2.5-4.9-2.3-7.62-2.3-5.15,0-10.29-.23-15.44-.17-6.76.08-13.53.11-20.29.3-1.88.05-3.5.74-4.83,2.07-.19.1-.38.08-.55-.05Z"/>
  <path class="cls-98" d="M203.42,103.42c1.53.84,2.94.01,4.39-.32,1.33.1,2.64-.08,3.94-.36-1.92,1.86-3.98,3.59-5.71,5.61-1.74,2.04-3.76,3.6-6.1,4.79-1.19.61-2.45.94-3.8.7,1.58-4.07,3.84-7.66,7.28-10.43Z"/>
  <path class="cls-128" d="M182.85,149.28c-1.05-3.28-2.04-3.97-5.43-4.03-2.96-.05-5.91-.24-8.87-.33-1.64-.05-3.27.16-4.9.22-1.86.07-3.65-.42-5.5-.26-5.52.5-11.06.23-16.58.45-2.08.08-4.17.27-6.26.3.81-2.29,2.9-1.67,4.44-1.69,8.65-.15,17.31-.11,25.96-.12,4.03,0,8.06.08,12.08-.02,1.63-.04,2.74.39,3.82,1.7,1.54,1.87,2.73,3.73,2.31,6.26-.99-.55-1.39-1.35-1.08-2.47Z"/>
  <path class="cls-109" d="M221.57,133.79c.11-1.69,1.55-2.05,2.72-2.47,3.54-1.26,6.89-2.8,10.16-4.74,2.97-1.76,5.31-4.41,8.52-5.74,3.14-1.3,6.31-1.6,9.45.03.37.19.78.35.82.86-.79.83-1.59,1.64-2.86,1.59-2.82-1.2-5.52-.78-8.1.7-2.28,1.31-4.53,2.68-6.32,4.67-4.75,1.83-9.48,3.7-14.38,5.1Z"/>
  <path class="cls-127" d="M325.74,102.35c.72-1.63,2.23-1.94,3.74-2.12,1.41-.17,2.82.02,4.2.34,3.03,1.42,5.86,3.15,8.21,5.54,2.24,2.26,1.81,5.95-.69,7.11-1.23.57-2.21.76-2.35-1.04-.93-1.64-.8-3.58-1.56-5.3-1.82-4.11-6.8-6.28-10.56-4.43-.35.17-.69.19-1-.09Z"/>
  <path class="cls-66" d="M353.24,101.94c-2.28,1.82-4.67.86-6.89.04-3.41-1.26-6.64-3-10.07-4.19-2.6-.91-5.3-1.63-8.07-1.95,2.47-.66,5-.42,7.46-.19,3.49.33,7.03.56,10.32,1.98,2.6,1.12,5.28,2.11,7.25,4.3Z"/>
  <path class="cls-105" d="M383.87,159.78c1.44,1.77,1.45,3.52-.22,5.24-5.37,5.56-13.72,6.64-19.85,1.48-1.8-1.52-1.99-3.17-.56-4.67,2.13,3.75,5.07,6.04,9.67,5.86,3.66-.14,6.28-2.05,8.56-4.57.91-1,2.1-1.88,2.39-3.35Z"/>
  <path class="cls-106" d="M283.15,103.82c-2.94-1.45-5.77-.21-8.63.36-4.12,1.79-8.27,1.53-12.42.16-1.36-.45-2.74-.82-4.11-1.24.25-.97.57-1.89,1.68-2.21.46-.21.98-.23,1.4-.02,4.77,2.39,9.57,1.33,14.36.12,2.09-.53,4.12-1.26,5.73-2.81.34-.33.74-.63,1.28-.47,1.35,1.91.66,4.05.72,6.11Z"/>
  <path class="cls-91" d="M316.72,109.22c-1.04-.89-2.06-1.78-2.82-2.96-1.19-1.83-3.18-1.92-5.09-2.08-1.33-.11-2.69.13-3.98-.37.5-1.06,1.46-1.31,2.5-1.43,2.56-.29,5.1-.22,7.64.28,1.84.36,3.53-.35,5.14-1.17.96-.49,1.81-.72,2.36.52.22.49.44.97.67,1.46-.32,3.47-3.44,6.26-6.42,5.74Z"/>
  <path class="cls-41" d="M386.33,172.6c-1.67-.45-3.19.35-4.76.65-2.61.5-5.21.98-7.85,1.19.48-.57,1.4-.38,1.8-1.08,1.94-.71,3.9-1.34,5.82-2.1,3.59-1.42,6.35-4,9.45-6.11.99-.67,2.04-1.24,3.07-1.85.95-.56,1.82-.5,2.58.35-2.42,4.06-6.04,6.77-10.12,8.95Z"/>
  <path class="cls-111" d="M246.72,153.45c-6.46,5.79-14,8.52-22.69,8.01-.13-1.84.22-2.43,2.03-3.01,2.46-.8,5.02-1.24,7.52-1.88,3.44-.88,6.79-2,10.11-3.22.94-.34,2.07-1.2,3.03.09Z"/>
  <path class="cls-57" d="M318.56,97.66c-1.47,1.38-3.34,1.7-5.17,1.43-4.85-.73-9.49.26-14.14,1.35-1.1.26-2.28.45-3.1-.7,5.62-3.35,11.61-4.95,18.17-3.85,1.54.26,2.92.97,4.24,1.78Z"/>
  <path class="cls-125" d="M327.55,126.16c-2.3,2.18-5.1,3.67-7.7,5.43-3.8,2.56-7.72,4.94-11.59,7.4-1.8,1.14-3.3,2.71-5.49,3.16-1.27.26-2.54.58-3.75-.22.02-1.61,1.34-2.56,1.95-3.87,6.35-.09,10.95-4.39,16.31-6.85,2.98-1.37,5.61-3.42,8.47-5.05h0c.51-.24,1.04-.4,1.6-.19.07.06.14.13.2.19Z"/>
  <path class="cls-44" d="M258.7,173.8c.75,1.35-.21,1.92-1.19,2.26-3.32,1.16-6.76,1.22-10.2.78-1.76-.23-3.5-.63-5.25-.95-2.2-1.07-4.61-1.47-6.92-2.16-3.35-1-6.72-1.94-10.1-2.85-1.43-.39-2.08-1.08-1.36-2.55,1.13-.16,2.09.38,3.1.74,6.57,2.35,13.03,5.05,19.95,6.24,4.13.71,8.21.82,11.98-1.51Z"/>
  <path class="cls-34" d="M174.91,170.82c1.71-.02,3.25,1.28,5.07.59,1.28-.48,2.65-.74,3.93-1.24,5.98-2.35,12.15-2.09,18.38-1.54,5.99.53,11.97,1.07,17.83,2.54.48.12.97.09,1.02.74-3.23-.53-6.45-1.17-9.7-1.58-8.14-1.04-16.3-1.78-24.41.16-1.73.41-3.44,1.08-5.01,1.91-2.67,1.42-5.27,2.53-8.14.59.06-.86.35-1.61,1.03-2.18Z"/>
  <path class="cls-126" d="M98.87,157.14c-.73,1.2-1.45,2.4-2.18,3.61-.6-1.33.6-2.06,1.1-2.95,3.58-6.33,5.71-13.22,7.9-20.1,1.41-4.44,2.2-9.01,2.89-13.6.18-1.19.88-2.17,1.02-3.35.03,1.59.06,3.18.1,4.77-.64,2.09-.26,4.29-.74,6.4-.72,3.6-1.55,7.17-2.87,10.61-1.04,2.72-2.15,5.42-3.23,8.12-1.44,2.09-2.36,4.5-3.98,6.48Z"/>
  <path class="cls-16" d="M296.89,111.7c1.73-.94,2.96.2,3.57,1.39,1.67,3.25,4.74,3.51,7.7,4.02,1.63.28,3.32.27,4.98.4.69.05,1.52-.27,1.97.51.47.82-.51,1.24-.67,1.9-.17.69-.86.75-1.3,1.11-4.34.83-8.19-.12-11.46-3.14-.73-.67-1.02-1.65-1.25-2.55-.49-1.94-1.64-3.12-3.54-3.64Z"/>
  <path class="cls-119" d="M246.72,153.45c-1.53-.6-2.76.34-4.06.82-5,1.85-10.15,3.17-15.34,4.29-1.71.37-3.05.97-3.29,2.9-.72-.04-1.45-.08-2.17-.12.04-.77-.31-1.39-.81-1.93-.43-.46-.79-.94-.53-1.59.31-.81,1.04-.67,1.69-.67,5.88.01,11.62-.91,17.18-2.82,3.17-1.09,6.09-2.78,8.95-4.5.77-.47,1.5-.67,2.35-.61-1.11,1.6-2.21,3.22-3.96,4.23Z"/>
  <path class="cls-59" d="M280.67,91.21c1.13.9,2.47,1.38,3.88,1.4,5.41.06,10.82.03,16.23.05.63,0,1.33-.23,1.89.32-9.94-.04-19.88-.06-29.83-.13-6.65-.04-13.3-.15-19.94-.22.7-2.04,2.58-1.59,3.93-1.54,6.1.23,12.2.04,18.3.09,1.85.02,3.7.02,5.55.04Z"/>
  <path class="cls-51" d="M257.99,103.1c.83-.67,1.61-.11,2.36.15,3.06,1.07,6.14,1.98,9.43,1.64,1.59-.16,3.16-.46,4.75-.7-2.76,1.33-5.12,3.25-7.57,5.05-1.11-.43-2.23-.83-3.32-1.31-1.36-.61-2.42-.38-3.19.93-.51-.8-1.29-1.34-1.91-2.03-.96-1.05-1.31-2.35-.55-3.73Z"/>
  <path class="cls-53" d="M322.47,102.02c-.58-.43-1.08-.83-1.91-.33-2.55,1.53-5.34,1.61-8.14.96-2.72-.63-5.2-.12-7.6,1.16-3.29.46-6.6.81-9.84,1.65-2.24.58-4.21,1.64-5.96,3.14-.93.8-1.94,1.39-3.22,1.37,1.22-2.41,3.18-4.15,5.2-5.85,3.11-.04,6.12-.78,9.12-1.46,4.9-1.11,9.82-.8,14.73-.33,2.53.24,4.52-.78,6.47-2.1.46.54,1.37.8,1.12,1.79Z"/>
  <path class="cls-104" d="M45.81,72.41c-.67.66-1.69.9-2.15,1.81-.63.61-1.23,1.24-1.89,1.81-.67.57-.65,1.16-.25,1.84-.7.02-1.18-.39-1.35-.98-.52-1.79-.99-3.75-.22-5.42,1.22-2.65,2.5-5.46,5.92-6.11,1.1-.21,2.15-.27,3.18.24-1.29,2.17-2.3,4.47-3.25,6.8Z"/>
  <path class="cls-87" d="M282.43,97.71c-5.56,4.67-12.02,5.63-18.97,4.64-1.39-.2-2.39-1.36-3.8-1.46.98-.35,1.95-.71,2.93-1.06.4-.23.82-.16,1.21-.05,5.06,1.44,9.6-.52,14.2-2.14.98-.35,1.14-1.72,2.32-1.77.99.29,1.57,1.04,2.11,1.84Z"/>
  <path class="cls-70" d="M38.37,176.29s.08.09.11.14c.5,1.1-.57,2.95,1.6,3.25,1.33.18,2.62.8,3.98.18-1.34,1.7-3.07,2.95-4.91,4.03-2.65,1.56-5.2.46-7.74-.44,1.99-2.71,4.67-4.75,6.96-7.16Z"/>
  <path class="cls-83" d="M372.26,138.79c.16-.97,1.04-1.23,1.72-1.33,5.33-.73,10.21.55,12.76,6.11.75,1.63.26,3.52-1.08,4.57-.4-1.1-1.22-1.92-1.85-2.87-.32-3.82-5.19-6.54-8.82-4.93-.54.24-1.01.65-1.65.63-.64-.59-1.18-1.22-1.08-2.18Z"/>
  <path class="cls-68" d="M280.32,95.86c-1.4,2.62-4.03,3.16-6.57,3.81-1.44.37-2.95.5-4.37.92-2.4.7-4.61.2-6.79-.77,1.83-1.07,3.98-1.01,5.92-1.72,2.66-.97,5.44-1.63,8.18-2.38,1.21-.33,2.44-.44,3.63.14Z"/>
  <path class="cls-135" d="M45.81,72.41c-.11-.3.4-.93-.36-.88-.64.05-.7-.34-.3-.5,1.99-.81,2-2.7,2.43-4.31.24-.9.64-1.19,1.47-1.12.84,2.61,3.18,3.17,5.38,3.91.62.21,1.26.37,1.89.56-.05.35-.02.83-.45.88-1.93.2-3.65,1.01-5.27,1.95-1.8,1.04-3.25.15-4.79-.49Z"/>
  <path class="cls-20" d="M133.48,149.22c.12,0,.23-.02.35-.03.73-.38,1.46-.62,2.2-.04-2.17,3.88,2.16,9.91,6.64,9.74,10.32-.39,20.67-.15,31.01-.11,1.66.02,3.33,0,4.99,0,.76,0,1.57-.1,2.15.58-2.8.42-5.62.18-8.44.19-12.01.04-24.02-.02-36.02.07-1.85.01-2.36-.68-2.48-2.35-.2-2.68-.46-5.36-.4-8.05Z"/>
  <path class="cls-17" d="M197.9,147.47c1.19-.17,2.27.21,3.24.81,2.37,1.48,4.69,3.04,7.04,4.56.57.37,1.15.76,1.02,1.53-.14.85-1,.69-1.55.96-.49.24-1.66-.5-1.32.92-3.71-2.06-6.39-5.11-8.42-8.77Z"/>
  <path class="cls-88" d="M325.74,126.16c-1.66,1.97-4.01,3.01-6.14,4.25-4.43,2.59-9.06,4.86-13.61,7.24-1.61.84-3.29,1.06-5.02.41.81-.96,1.62-1.92,2.43-2.88,3.5.84,6.33-1.1,9.28-2.34,4.06-1.71,7.83-3.98,11.53-6.37.5-.32,1.02-.28,1.55-.3Z"/>
  <path class="cls-95" d="M276.34,42.58c1.59-.29,1.71-1.27,1.95-2.77.39-2.43-.4-5.34,2.04-7.22,1.22-.95,2.41-1.95,3.67-2.84.75-.53,1.35-1.12,1.89-1.86.49-.68.62-1.6,1.63-1.97.92-.34.69-1.4.69-2.22-.46-.49-.78,0-1.15.16-.19-2.78-2.15-4.28-4.15-5.76-.23-.08-.26-.2-.09-.38.96-.58,1.52.23,2.08.69,2.15,1.76,4.41,3.39,4.11,6.76-.19,2.17-2.18,2.84-3.06,4.4-.17.3-.48.56-.79.72-4.53,2.36-6.19,6.06-5.22,11.01.06.29,0,.59-.01.89-1.21.06-2.28,1.36-3.6.4Z"/>
  <path class="cls-138" d="M71.83,120.32c.77,1.34.02,2.7-.08,4.02-.31,4.34-1.31,8.57-2.71,12.7-.09.27-.31.5-.47.75-1.2-2.04-.91-4.34-.54-6.38.53-2.93.91-5.96,2.31-8.68.43-.84.8-1.71,1.49-2.4Z"/>
  <path class="cls-107" d="M235.95,128.7c-.2-.06-.63-.19-.45-.33,3.64-2.91,7.07-6.27,12.23-6.15.99.02,2.04.08,2.64,1.11-.86.41-1.69.91-2.58,1.23-3.94,1.41-7.89,2.77-11.84,4.14Z"/>
  <path class="cls-100" d="M230.15,150.66c-2.23.22-4.2-.79-6.15-1.55-2.37-.92-4.67-2.07-6.81-3.48-1.36-1.55-.86-2.99,1.39-3.98.15-.13.29-.27.44-.4.99.79,2.13,1.43,2.86,2.52-.2,1.68.6,2.81,1.92,3.74,1.96,1.37,4.08,2.4,6.34,3.15Z"/>
  <path class="cls-56" d="M373.34,140.97c2.74-3.15,8.34-1.02,10.38,1.65.59.77.78,1.74.09,2.64-2-1.98-4.66-2.11-7.21-2.46-1.36-.19-2.47-.7-3.26-1.84Z"/>
  <path class="cls-97" d="M316.72,109.22c3.5-.4,5.23-2.77,6.42-5.74.62,2.03,1,4.08.5,6.2-.05-.63-.1-1.27-.15-1.9.38,2.4-1.36,2.83-3.03,3.39-2.15.72-4.38,1.01-6.61,1.29.35-.48,1.16-.63,1.07-1.44.83-.37.9-1.5,1.8-1.8Z"/>
  <path class="cls-65" d="M263.34,179.85c.45-.28.87-.68,1.36-.82,5-1.36,9.33-4.19,13.98-6.31.87-.4,1.75-.64,2.71-.42-.48,1.26-.67,2.66-1.81,3.59-1.68-.77-3.24-.27-4.8.4-2.34,1.01-4.69,2.02-7.06,2.97-1.4.56-2.88.69-4.38.58Z"/>
  <path class="cls-35" d="M276.34,42.58c.84-.02,1.72.33,2.34-.68.49-.8.83.2,1.26.29,2.49.49,4.98.93,7.46,1.47,3.81.83,7.21,2.49,10.17,5.04-1.02.51-1.58-.38-2.18-.82-3.59-2.57-7.62-3.72-11.95-4.3-4.34-.58-8.56-.33-12.74.81-1.59.43-3.12,1.11-4.62,1.8-.53.25-.88.19-1.32-.04,3.63-1.93,7.56-2.91,11.58-3.56Z"/>
  <path class="cls-92" d="M180.82,159.37c-2.45-.04-4.9-.09-7.36-.13-.06-1.18.76-1.2,1.58-1.14,1.71.12,3.35-.22,4.98-.65,1.98-.52,2.54-1.35,2.37-3.4-.11-1.41-.63-2.67-1.48-3.81-.25-.34-.88-.57-.43-1.18.6-.34,1.17-.26,1.7.15.22.02.43.05.65.07.36.82.72,1.65,1.08,2.47,0,1.09-.02,2.18-.03,3.27-.19.63-.13,1.27-.08,1.9.08,1.1-.26,1.93-1.27,2.43-.57,0-1.15.02-1.72.02Z"/>
  <path class="cls-85" d="M150.79,184.17c.14-1.24,1.02-2,1.87-2.72,1.33-1.13,2-2.47,1.75-4.23-.15-1.04.16-1.86,1.09-2.41.54,0,.89-.28,1.12-.74.27-.05.54.09.52.32-.11,1.24.54,2.37.48,3.6-1.61,2.79-4.07,4.65-6.83,6.17Z"/>
  <path class="cls-42" d="M154.37,105.27c-.68-1.63-1.35-3.26-2.05-4.88-.23-.54-.44-1.15-1.06-1.38-1.8-.68-3.2-1.69-3.35-3.81-.23-.11-.47-.21-.7-.32,1.76-.89,2.97.68,4.45,1.02,1.23.1,1.23,1.26,1.45,1.99.73,2.4,1.28,4.86,1.27,7.39Z"/>
  <path class="cls-125" d="M338.71,121.08c.03.54-.22.99-.66,1.2-3.37,1.64-6.77,3.22-10.5,3.89,0,0,0,0,0,0-.07-1.1.91-1.21,1.54-1.4,2.54-.76,4.78-2.12,7.12-3.28.8-.36,1.64-.43,2.51-.39Z"/>
  <path class="cls-12" d="M30.68,185.23c-.08,1.89.44,3.56,1.62,5.09.62.8.91,1.87,1.35,2.81-1.21.01-1.3-1.25-1.93-1.71-1.72-1.26-1.11-3.36-2.16-4.82-.24-.33-.14-1.4.71-1.74.13.12.27.25.4.37Z"/>
  <path class="cls-88" d="M336.2,121.47c-1.56,1.94-4.01,2.24-6.09,3.21-.91.43-1.95.56-2.57,1.47-.6,0-1.2,0-1.8,0,1.23-.97,2.66-1.55,4.12-2.04,1.52-.51,3-1.09,4.17-2.24.67-.4,1.42-.4,2.17-.41Z"/>
  <path class="cls-132" d="M88.4,172.28c1.6,1.46,3.16,2.95,4.98,4.16.61.41,1.26.89,1.46,1.71-2.61-1.39-4.76-3.44-7.2-5.09.15-.36.39-.63.76-.78Z"/>
  <path class="cls-43" d="M282.82,17.71c.03.13.06.25.09.38-2.38-.48-4.68-1.26-7.19-1.12-1.85.11-3.56.74-5.35.96,4.11-2.29,8.27-1.85,12.46-.22Z"/>
  <path class="cls-136" d="M151.66,95.89c-1.56,0-2.85-1.19-4.45-1.02-.42-.07-.85-.17-1.16.25-.33-.13-.66-.26-1-.39,1.73-1.16,5.15-.56,6.61,1.15Z"/>
  <path class="cls-2" d="M157.62,178c-.78-1.19-.77-2.59-1-3.92-.05-.25-.48-.46-.1-.76,1.15.74,1.73,3.23,1.1,4.69Z"/>
  <path class="cls-70" d="M41.43,172.6c.86.33.69.92.25,1.41-.51.57-1.01,1.4-2.01.74.45-.83,1.02-1.55,1.76-2.14Z"/>
  <path class="cls-20" d="M182.54,159.34c1.16-1.22.96-2.86,1.36-4.32,0,1.17.04,2.34-.04,3.5-.05.76-.31,1.46-1.32.83Z"/>
  <path class="cls-89" d="M268.26,19.28c-1.19,1.18-2.36,2.41-4.02,3,.48-.68,1.32-.95,1.8-1.64.51-.75,1.38-1.03,2.22-1.37Z"/>
  <path class="cls-120" d="M287.06,23.85c.13-.42.14-.99.7-1.02.64-.04.41.51.44.86-.81,0-.55.84-.97,1.3-.07-.45-.12-.8-.17-1.14Z"/>
  <path class="cls-132" d="M94.81,178.13c1.26.11,2.04,1.04,2.98,1.71-1.28-.07-2.11-.93-2.98-1.71Z"/>
  <path class="cls-94" d="M199.5,92.96c1.3-.62,2.66-.21,4-.28-.02.09-.03.18-.04.26-1.32,0-2.64,0-3.96.01Z"/>
  <path class="cls-7" d="M254.03,120.45c0-.64,0-1.27,0-1.91,1.1.63,1.09,1.27,0,1.91Z"/>
  <path class="cls-130" d="M93.45,165.8c1.67.37,3.16,1.04,4.35,2.33,1.41,1.54,3.76,1.53,5.22,2.99,1.78,1.78,3.93,3.28,4.71,5.88.21.7.99,1.42.1,2.09-.98.74-1.95,1.63-3.37,1.37-6.29-1.14-11.14-4.65-15.34-9.24,1.77-1.55,2.81-3.68,4.33-5.43Z"/>
  <path class="cls-38" d="M33.21,187.79c-2.13.93-1.42-.99-1.81-1.8.92.28.99,1.42,1.81,1.8Z"/>
  <path class="cls-31" d="M323.62,146.69c-.25-2.28-.43-4.55-.09-6.84-.38-.52-.23-1.06-.09-1.61,1.66-5.64,5.86-8.68,11.03-10.71.89-.35,1.81-.64,2.74-.88,2-.17,2.42.09,2.37,2.02-.06,2.13.69,4.22.25,6.36-.87,2.08-.12,4.2-.11,6.29,0,1.42.19,2.84.06,4.26-.66,1.69-2.23,2.51-3.47,3.65-1.88,1.53-3.9,2.63-6.45,2.65-1.97.01-3.62-.53-4.97-1.95-.82-.92-1.43-1.94-1.27-3.25Z"/>
  <path class="cls-27" d="M323.85,138.39c-.11.49-.21.98-.32,1.47-.61-.04-1.17.16-1.76.28-1.08.22-2.21.24-2.88-.87-.65-1.07-.64-2.31.15-3.2,2.98-3.36,6.23-6.37,10.31-8.49,2.76-1.43,5.74-1.65,8.62-2.39,1.58-.41,3.21-.08,4.75.46.78.27,1.4.81,1.57,1.61.58,2.74.34,5.39-1.56,7.58-.77.89-1.94,1.37-3.2,1.41-.41-.35-.26-.76-.12-1.16-.06-1.95-.15-3.9-.18-5.86-.04-2.39-.02-2.39-2.32-2.07-3.91-.01-7.32,1.39-10.37,3.75-.66.51-1.29,1.06-1.89,1.65-2.11,2.08-2.26,3.21-.81,5.82Z"/>
  <path class="cls-61" d="M323.62,146.69c.53.93.68,2.04,1.42,2.87.61,2.99,1.65,3.81,4.85,3.49,2.79-.28,5-1.59,6.34-4.14,1.06-.98,2.13-1.96,3.19-2.94,1.53,0,1.73.29,1.49,2.17-3.46,4.18-7.85,6.62-13.27,7.19-3.12.33-5.53-1.09-6.35-3.83-.51-1.69.6-3.97,2.33-4.81Z"/>
  <path class="cls-118" d="M340.9,148.14c.05-1.09-.18-2-1.49-2.17-.09-3.63-.41-7.26-.01-10.89.04.39.08.77.12,1.16.7.86.97,1.7.76,2.91-.37,2.16-.09,4.36.72,6.45.33.85.48,1.71-.1,2.53Z"/>
  <path class="cls-51" d="M255.76,178.06c2.16-.28,4.07-1.24,5.93-2.28,1.33-.75,1.65-2.08,1.66-3.51.84-1.08,1.8-2.1,2.51-3.26,2.03-3.31,3.11-7.08,3.47-10.81.39-4.02,1-8.07.84-12.14-.1-2.55-1.56-4.93-1.05-7.57.67-3.45.42-6.94.3-10.4-.14-3.92-.3-7.86-.95-11.75-.23-1.4-.17-2.88-.03-4.31.13-1.31.86-2.13,2.4-2.11,3.14.04,5.4,2.14,5.46,5.47.07,4.13.09,8.25.35,12.38.25,3.89-.72,7.71-1.21,11.54-.36,2.8-.05,5.59-.51,8.4-.99,5.99-.04,12.18-1.79,18.12-1.16,3.94-2.93,7.44-6.55,9.7-.48.24-.96.48-1.45.72-3.36.59-6.62,1.55-10.02,2.96.31-.56.48-.86.64-1.15Z"/>
  <path class="cls-130" d="M114.2,147.11c-.96-.06-1.55.04-2.02-.15-.92-.38-2.44.11-2.63-1.37-.17-1.31.61-2.45,1.53-3.27,4.48-3.98,9.45-7.01,15.49-8.04,2.17-.37,3.8.47,4.5,2.42.31.88.16,1.58-.4,2.14-4.67,4.7-10.38,7.28-16.47,8.28Z"/>
  <path class="cls-31" d="M210.31,90.16h-8.42c-.07-.17-.13-.34-.2-.5,6-3.71,11.99-7.41,17.99-11.12.37-.78,1.15-1.02,1.84-1.37,5.69-2.88,11.65-5.1,17.67-7.19,10.04-3.49,19.99-7.23,29.94-10.98,1.26-.48,2.52-1.07,3.94-.96.67-.23,1.36-.41,2.01-.69,2.29-1,4.6-1.43,6.99-.35,1.36.04,2.58.61,3.83,1.06,3.81,1.12,7.39,2.86,11.15,4.1.85.28,1.64.73,2.35,1.31,6.4,2.94,13.07,5.21,19.72,7.52,4.74,1.65,9.26,3.8,13.83,5.83.32.14.65.27.98.41.33.14.71.05,1.04.22,4.8,2.57,9.51,5.3,13.96,8.46.39.28.72.63.94,1.07,1.91,1.19,3.82,2.38,5.73,3.58l-.08.34h-9.57c-2.17-.18-4.33-.13-6.5-.03-5.16-.05-10.33-.11-15.49-.14-19.1-.1-38.21-.2-57.31-.29-.48,0-.96.02-1.44.03-2.75-.32-5.5-.09-8.25-.14-5.65-.1-11.3.27-16.95.25-6.91-.02-13.82.26-20.73.04-.72-.02-1.39-.32-2.1-.43-1.68,0-3.37-.01-5.05-.02-.6.31-1.2.56-1.81.01Z"/>
  <path class="cls-35" d="M299.41,63.45c-4.67-1.42-9.09-3.48-13.69-5.08.4-1.17,1.28-.64,1.91-.41,1.4.52,2.23-.2,3.15-1.05.92-.84.28-1.59.12-2.44-.35-1.95-1.38-3.35-2.9-4.56-1.01-.81-1.99-1-3.26-1.05-1.72-.06-3.52-.14-5.16-.87,0-.24-.01-.48-.02-.72-.02-2.43,1.87-3.58,4.14-2.55,2.22,1,4.79,1.03,6.87,2.45.39.27,1.08.44,1.16.77.48,2.09,2.3,3.03,3.62,4.4.33.34.66.86,1.06.93,2.08.39,3.34,2.07,5.05,3.05.05.03.13.03.17.06.78.8-.56,2.06.88,2.96,1.22.75.47,1.85-.67,2.46-.15.08-.23.41-.25.64-.06,1.13-.53,1.2-1.37.61-.42-.29-1.05-.72-.81.41Z"/>
  <path class="cls-86" d="M349.87,86.95c-5.15-3.51-10.54-6.64-15.93-9.75-.46-1.36.09-2.42,1.06-3.31.99-.91,2.01-.34,3.01.02.49.17.95.62,1.44,0,1.07.05,2.09.15,1.96,1.64-.05.56.31.9.75,1.13,2.52,1.34,4.13,3.76,6.45,5.34,2.2,1.5,4.32,3.13,6.9,4.06-.53-.84-1.47-1.29-1.94-2.14-.15-.27-.27-.55-.11-.85.13-.24.39-.31.61-.21,1.95.91,4.04,1.64,5.22,3.66-.89-.09-1.19.3-.98,1.16.38,1.58-.03,1.95-1.62,1.47-1.86-.56-3.77-1.02-5.1-2.63-.83-1.01-1.34-.62-1.71.4Z"/>
  <path class="cls-21" d="M279.59,47.98c2.09-.38,4.08.71,6.21.39,1.71-.25,4.88,2.85,5.3,4.89.07.35.13.7.15,1.06.04.83,1.51,1.42.33,2.46-1.27,1.11-2.29,2.77-4.38,1.49-.46-.29-1.02-.38-1.47.11-1.28-.29-2.47-.81-3.65-1.39.24-.09.75-.36.34-.46-2.33-.55-2.81-2.23-2.87-4.25-.62-1.2-.37-2.4,0-3.6.01-.23.02-.47.03-.7Z"/>
  <path class="cls-64" d="M359.28,86.54c-.89-.68-1.69-1.54-2.69-1.99-.96-.44-1.84-1.03-3.07-1.59.6,1.74,2.27,2.06,3.06,3.34-.86.72-1.74.33-2.42-.1-3.78-2.35-7.61-4.66-10.48-8.16-.43-.53-1.11-.45-1.55-.83-.58-.51-1.71-.56-1.13-1.98.38-.93-1.04-.84-1.56-1.31-.36-.21-.73-.41-.87-1.02,1.92.85,3.74,1.66,5.57,2.47,2.56,2.28,5.84,3.43,8.61,5.37,3.63,2.55,7.5,4.71,11.53,6.89-.82.53-1.49.24-2.1.33-1.12-.15-2.12-.57-2.91-1.41Z"/>
  <path class="cls-35" d="M279.56,48.68c0,1.2,0,2.4,0,3.6-.37.13-.71.23-.7-.37,0-.83,0-1.67,0-2.5.23-.24.47-.49.7-.73Z"/>
  <path class="cls-86" d="M333.85,70.7c1.36.15,2.61.52,3.44,1.75-1.15-.58-2.29-1.17-3.44-1.75Z"/>
  <path class="cls-102" d="M256.5,180.21c-3.03.68-6.09.41-9.15.34-.46-.01-.76-.29-.96-.69,3.12,0,6.25-.01,9.37-.02.3.02.57.07.73.37Z"/>
  <path class="cls-31" d="M233.12,116.44c.2.42.41.85.61,1.27q1.38,2.96-1.45,4.41c-3.34,2.05-7.06,3.21-10.78,4.28-1.64.47-3.02,1.43-4.62,1.92-.51.16-1.02.35-1.54.48-3.11.74-3.3.62-3.88-2.54-.27-.64.13-1.29-.03-1.93-.05-2.25-.1-4.51-.14-6.76-.64-1.65.02-3.24.32-4.82.2-1.09.54-2.17,1.03-3.18.4-1.71,1.42-3.01,2.79-4.05,2.03-1.54,4.16-2.11,6.74-1.32,4.15,1.27,6.58,4.41,8.92,7.7.31.44.58.91.85,1.38.36,1.07,1.62,1.82,1.19,3.18Z"/>
  <path class="cls-46" d="M211.43,124.31c.48.53.29,1.23.45,1.84-.82,1.13-1,2.24,0,3.38.22.25.45.57.21.95-2.09.16-2.65.62-2.46,2.61.18,1.93.67,3.84,1.02,5.76.28,1.54,1.47,2.28,2.78,2.36,1.72.1,3.42.36,5.14.44-1.27,1.04-2.38,2.14-1.39,3.98.11.6.22,1.2.34,1.79-2.7-1.13-5.23-2.43-7.21-4.77-1.3-1.53-3.56-1.86-5.15-3.18-2.92-2.44-4.71-5.41-4.56-9.28.1-2.63,1.84-4.55,3.58-6.19.96-.91,2.61-.54,3.9.14,1.09.57,2.18.98,3.34.17Z"/>
  <path class="cls-11" d="M233.12,116.44c-.47-.97-.94-1.94-1.42-2.92,1.07-2.29.28-4.29-.97-6.21-1.34-2.06-3.41-2.95-5.71-3.41-3.9-.77-7.5-.4-10.55,2.53-.94.91-1.47,1.83-1.35,3.12-1.22,2.52-1.45,5.27-1.84,7.99-.33,1.07-.96,1.25-1.84.59-1.02-.76-1.65-1.82-1.62-3.05.12-4.76,2-8.75,6.13-11.21,3.38-2.01,7.15-2.96,11.17-1.89.22.06.48.02.72.02,1.47.62,3.01,1.12,4.41,1.87,2.99,1.62,5.31,3.99,7.02,6.94,1.08,1.86.58,3.04-2.03,4.87-.71.25-1.41.49-2.12.74Z"/>
  <path class="cls-70" d="M51.61,174.8c.35-1.17,1-2.09,2.1-2.7,1.95-1.08,3.32-3,5.47-3.79-2.41,2.29-4.75,4.67-7.57,6.49Z"/>
  <path class="cls-96" d="M273.08,58.03c-12.24,4.51-24.44,9.13-36.74,13.48-5.7,2.02-11.22,4.42-16.66,7.02-.45-.45-1.08-.46-1.5-.19-3.41,2.14-7.61,2.84-10.71,5.35-2.34,1.89-5.49,2.23-7.5,4.55-1.12,1.29-2.3,2.56-3.75,3.51-1.46.97-3.01,1.75-4.66,2.33-.28-1.84.24-3.08,2.27-3.51,3.01-.65,5.16-2.87,7.55-4.57,1.38-.98,3.2-1.27,4.24-2.74.81-1.41,2.66-1.32,3.61-2.53,2.58-1.62,5.42-2.71,8.26-3.76.96-.35,1.94-.61,2.76-1.26.53-.42,1.11-.61,1.81-.68,1.05-.1,1.94-.54,2.89-1.13,1.29-.81,2.69-1.65,4.36-1.74,1.32-.07,2.58-.47,3.74-1.15.12,0,.24,0,.36,0,2.05.16,3.33-1.13,4.43-2.55.52-.67,1.03-1.07,1.86-1.17,2.26-.26,4.24-1.74,6.67-1.44.59.07,1.35-.48,1.9-.91,1.55-1.21,3.3-1.44,5.17-1.24,1.14.12,1.77-.63,1.9-1.5.22-1.4.93-1.12,1.76-.77,1.71.74,3.64.36,4.87-.98,1.01-1.11,2.92-1.19,3.42-2.94.03-.12.57-.21.82-.13,2.07.65,4.15.85,6.28.33.17-.04.4.19.61.3Z"/>
  <path class="cls-15" d="M201.63,84.33c-1.89.62-3.51,1.76-5.15,2.82-3.39,2.19-7.09,3.82-10.38,6.21-1.2.87-2.89,1.68-4.69,1.45-.72-.09-1.35-.24-1.6-.92-.3-.81.25-1.3.84-1.79,1.33-1.08,3.02-1.36,4.53-1.94,2.45-.94,4.65-2.39,7.09-3.31,4.1-1.08,7.49-3.57,11.11-5.58,5.89-3.27,11.46-7.08,17.57-9.96.44-.21.84-.71,1.65-.34-2.46,1.23-4.51,2.83-6.83,4.04-3.8,1.98-7.33,4.45-10.8,6.96-1.11.8-2.51,1.18-3.35,2.35Z"/>
  <path class="cls-8" d="M233.05,71.03c-.71,1.62-2.4,1.53-3.64,1.64-1.99.17-3.53.84-4.86,2.24-.57.6-1.88.8-2.08.69-1-.52-1.43.14-2.04.59-.72.53-1.49.9-2.39,1.12-2.81.67-5.22,2.35-7.94,3.29-.27.09-.58.11-.87.16,1.62-2.67,4.71-2.89,7.13-4.2,2.7-1.47,5.77-2.11,8.56-3.46,1.18-.58,2.26-1.09,3.36-1.82,1.09-.72,3.12-1.36,4.76-.23Z"/>
  <path class="cls-65" d="M260.11,179.86c1.08,0,2.15-.01,3.23-.02-1.87,1.16-4.03,1.43-6.12,1.76-5.37.85-10.67.16-15.92-1.03-.54-.12-1.04-.27-1.4-.72,2.74-.31,5.18,1.12,7.87,1.3,3.9.26,7.72.07,11.54-.62.38-.07.62-.34.8-.67Z"/>
  <path class="cls-115" d="M212.09,130.48c-.27-.79-1.31-1.09-1.37-1.98-.06-.97-.26-2.07,1.16-2.35.87,3.76.28,2.88,4.14,1.92,2.65-.66,5.08-2.18,7.77-2.84,2.95-.73,5.52-2.45,8.49-3.11-.52,1.91-2.07,2.97-3.65,3.66-3.97,1.73-7.98,3.4-12.14,4.66-1.48.45-2.92.39-4.39.05Z"/>
  <path class="cls-1" d="M217.17,90.16c10.86.01,21.72.02,32.59.03,4.44,0,8.88.01,13.33.04.71,0,1.44-.13,2.13.2-5.16.03-10.32.05-15.47.1-.88,0-1.78-.16-2.58.5-.27.22-.87.26-1.21.12-2.07-.84-4.12.1-6.16-.02-5.87-.34-11.74.29-17.61,0-1.67-.08-3.58.53-5.01-.98Z"/>
  <path class="cls-94" d="M210.31,90.16c.6,0,1.2,0,1.81-.01-1.16,1.54-1.13,1.4.75,1.84,1.89.44,3.8.14,5.68.62-3.84,0-7.68,0-11.52,0-.51-1.08.08-1.37,1.02-1.39.91-.02,1.75-.2,2.27-1.06Z"/>
  <path class="cls-116" d="M182.2,149.2c-.6.02-1.2.04-1.81.06-.7.63-1.57.53-2.4.53-13.2.01-26.4.01-39.6,0-.83,0-1.7.1-2.39-.54-.73-.02-1.45-.04-2.18-.06.92-2.12,2.91-2.45,4.77-2.44,3.04.02,6.12.07,9.09-.21,3.67-.34,7.29.06,10.93-.05,3.25-.1,6.56-.32,9.89.08,3.06.37,6.24-.13,9.36.13,1.83.15,3.6.43,4.34,2.5Z"/>
  <path class="cls-103" d="M42.51,71.18c.73-1.21,1.73-2.08,2.09-3.54q.67,2.42-2.09,3.54Z"/>
  <path class="cls-81" d="M42.06,74.39c-.32.49-.49,1.22-1.18.66-.19-.15-.37-.65-.27-.79.58-.83.89.46,1.46.13Z"/>
  <path class="cls-99" d="M136.01,149.26c14.8,0,29.59,0,44.39,0,1.9,1.14,3.27,5.05,2.37,6.95-.4.84-1.16,1.39-2.07,1.6-1.91.42-3.83,1.03-5.81.73-.76-.11-1.09.16-1.42.69-10.76.01-21.51.03-32.27.04-1.93,0-4.44-1.81-5.02-3.65-.41-1.31-1.11-2.5-1.46-3.85-.36-1.37-.08-2.15,1.29-2.52Z"/>
  <path class="cls-18" d="M323.85,138.39c-1.73-1.22-2.08-2.88-.8-4.6,3.1-4.14,7.45-6.22,12.41-7.2.58-.11,1.03.21,1.45.57-2.62.83-5.14,1.93-7.43,3.43-2.84,1.86-4.64,4.56-5.63,7.79Z"/>
  <path class="cls-123" d="M336.23,148.91c.08.83-.23,1.46-.84,2.05-2.16,2.1-4.74,2.92-7.67,2.54-2.31-.3-3.26-1.79-2.68-3.94,2.82,2.39,5.81,2.58,9.22.57.66-.39,1.31-.81,1.97-1.22Z"/>
  <path class="cls-19" d="M213.13,109.56c-.66-1.08-.17-1.99.53-2.74,2.81-3.02,6.28-4.19,10.36-3.55,2.9.46,5.57,1.29,7.24,3.99.7,1.13,1.08,2.38,1.53,3.61.45,1.21-.66,1.8-1.09,2.65-1.07-1.92-2.67-3.45-3.83-5.33-2.83-4.61-10.53-5.05-13.79-.88-.48.62-.64,1.49-.95,2.25Z"/>
</svg>